<svg xmlns="http://www.w3.org/2000/svg" xmlns:xlink="http://www.w3.org/1999/xlink" width="128" height="128"><defs><radialGradient xlink:href="#a" id="k" cx="187.53" cy="400.202" fx="187.53" fy="400.202" r="125.53" gradientTransform="matrix(2.16307 0 0 2.25732 -450.688 -753.156)" gradientUnits="userSpaceOnUse"/><linearGradient id="a"><stop offset="0" stop-color="#99c1f1"/><stop offset="1" stop-color="#fff" stop-opacity="0"/></linearGradient><radialGradient xlink:href="#b" id="l" cx="312.948" cy="468.452" fx="312.948" fy="468.452" r="31.197" gradientTransform="matrix(7.44285 -.0641 .0342 3.96972 -2263.015 -1535.904)" gradientUnits="userSpaceOnUse"/><linearGradient id="b"><stop offset="0" stop-color="#f6f5f4"/><stop offset="1" stop-color="#f6f5f4" stop-opacity="0"/></linearGradient><radialGradient xlink:href="#c" id="m" cx="361.527" cy="468.234" fx="361.527" fy="468.234" r="26.938" gradientTransform="matrix(21.84852 0 0 10.64316 -7811.744 -4662.975)" gradientUnits="userSpaceOnUse"/><linearGradient id="c"><stop offset="0" stop-color="#deddda"/><stop offset="1" stop-color="#deddda" stop-opacity="0"/></linearGradient><filter id="n" color-interpolation-filters="sRGB"><feBlend mode="multiply" in2="BackgroundImage"/></filter><radialGradient xlink:href="#d" id="i" cx="43.686" cy="143.706" fx="43.686" fy="143.706" r="60.256" gradientUnits="userSpaceOnUse" gradientTransform="translate(8.518 17.58) scale(.87972)"/><linearGradient id="d"><stop offset="0" stop-color="#fff"/><stop offset="1" stop-color="#fff" stop-opacity="0"/></linearGradient><radialGradient xlink:href="#d" id="j" gradientUnits="userSpaceOnUse" gradientTransform="translate(8.518 17.58) scale(.87972)" cx="139.739" cy="132.453" fx="139.739" fy="132.453" r="60.256"/><radialGradient xlink:href="#e" id="h" cx="-85.993" cy="248.083" fx="-85.993" fy="248.083" r="46" gradientUnits="userSpaceOnUse" gradientTransform="translate(182.036 -279.38) scale(1.36685)"/><linearGradient id="e"><stop offset="0" stop-color="#c0bfbc"/><stop offset=".874" stop-color="#deddda"/><stop offset=".917" stop-color="#b1b0ad"/><stop offset="1" stop-color="#77767b"/></linearGradient><linearGradient gradientTransform="translate(-7.379 -165.88)" xlink:href="#f" id="g" x1="11.62" y1="231.745" x2="132.13" y2="231.745" gradientUnits="userSpaceOnUse"/><linearGradient id="f"><stop offset="0" stop-color="#9a9996"/><stop offset=".154" stop-color="#b4b2af" stop-opacity=".988"/><stop offset=".35" stop-color="#8b8a86" stop-opacity=".976"/><stop offset=".733" stop-color="#999895" stop-opacity=".969"/><stop offset=".896" stop-color="#d6d5d4" stop-opacity=".949"/><stop offset="1" stop-color="#787773" stop-opacity=".941"/></linearGradient></defs><g transform="translate(-.496 -.1)"><circle r="60.255" cy="65.865" cx="64.496" fill="url(#g)" enable-background="new"/><circle cx="64.496" cy="62.334" r="60.255" fill="url(#h)" enable-background="new"/><rect style="marker:none" width="116" height="116.007" x="6.621" y="4.113" rx="58" ry="56.986" fill="#d5d3cf" enable-background="new"/><g opacity=".572"><path d="M71.875 19.957a60.255 60.255 0 0 0-60.256 60.256 60.255 60.255 0 0 0 60.256 60.256 60.255 60.255 0 0 0 60.256-60.256 60.255 60.255 0 0 0-60.256-60.256zM72 21.992c32.132 0 58 25.416 58 56.987v2.035C130 112.584 104.132 138 72 138c-32.132 0-58-25.416-58-56.986v-2.035c0-31.57 25.868-56.987 58-56.987z" transform="translate(-7.379 -17.88)" fill="url(#i)" enable-background="new"/><path transform="translate(-7.379 -17.88)" d="M71.875 19.957a60.255 60.255 0 0 0-60.256 60.256 60.255 60.255 0 0 0 60.256 60.256 60.255 60.255 0 0 0 60.256-60.256 60.255 60.255 0 0 0-60.256-60.256zM72 21.992c32.132 0 58 25.416 58 56.987v2.035C130 112.584 104.132 138 72 138c-32.132 0-58-25.416-58-56.986v-2.035c0-31.57 25.868-56.987 58-56.987z" fill="url(#j)" enable-background="new"/></g><g transform="translate(32.885 -20.6) scale(.34734)"><circle style="marker:none" cx="91.277" cy="238.128" r="164.756" fill="#fff"/><path style="marker:none" d="M-40.578 142.228s24 18 29 33-16 36-11 60 102 117 102 117l37-39s26-11 45 12 17 51 17 51-33.667 28-88 28c-86.005 0-163-75.025-163-148 0-84.149 32-114 32-114z" fill="url(#k)"/><path style="marker:none" d="M245.422 187.228l-121 123s29.404 8.59 40.404 23.59c11 15 19.596 38.41 19.596 38.41s49.201-40.498 60-69c13.701-36.16 19.941-117.722 1-116z" fill="#2ec27e"/><path style="marker:none" d="M21.422 90.228v202s-38-23-41-55 19-33 10-56-30-43-30-43 19-28 36-37 25-11 25-11z" fill="#ffbe6f"/><path d="M49.028 320.506V78.228l58.124-5.42 4.27 247.42z" style="marker:none" fill="url(#l)"/><path d="M151.128 84.443l8.794 104.285-5.561 86.207 91.061-87.707S227.1 134.37 197.208 111.94s-46.08-27.498-46.08-27.498z" style="marker:none" fill="#26a269"/><path style="marker:none" d="M161.028 270.506l-12-189.278-41.876-8.42 4.27 247.42z" fill="url(#m)"/><path style="marker:none" d="M19.152 91.04v199.59l60.988 60.99 60.988-60.988 13.233-15.696-3.233-190.492" fill="none" stroke="#000" stroke-width="10" stroke-linejoin="round"/><path style="marker:none" d="M-2.768 354.094c18.632-24.949 47.416-42.076 78.232-46.548 23.856-3.462 48.742.55 70.302 11.334 21.56 10.783 39.696 28.29 51.234 49.456L166.23 384.5a20.672 20.672 0 0 0 8.738-10.812 20.672 20.672 0 0 0-.181-13.9c-1.43-3.807-3.956-7.098-6.654-10.139-10.531-11.872-24.22-20.81-39.11-26.299-14.891-5.488-30.954-7.574-46.802-6.732-31.605 1.678-62.435 15.273-84.989 37.477zm-45.81-205.616s21 14.25 23 34.25-7.5 33.5-3 55 48.73 60.403 48.73 60.403l-1-7.5s-29.73-28.403-34.23-48.403c-4.5-20 16.5-34.5 16.5-34.5s-.5-18.5-9.5-35-30.5-38.75-30.5-38.75z"/><path style="marker:none" d="M49.028 320.506L80.14 351.62l37.654-37.477s-22.274-4.066-36.947-1.768c-14.672 2.298-31.82 8.132-31.82 8.132zm90.894-240.278l8.465 157.146c.77 14.305.298 28.95-4.759 42.354l-6.206 13.5 34-29a7.427 7.427 0 0 1-3.755-.454 7.426 7.426 0 0 1-3.038-2.253c-.882-1.105-1.43-2.446-1.771-3.818-.34-1.373-.483-2.785-.625-4.192-1.78-17.631-3.66-35.69.69-52.869 2.458-9.709 6.834-18.804 10.42-28.156 3.585-9.351 6.422-19.278 5.58-29.258-1.08-12.77-8.551-24.84-19.5-31.5 6.808 10.39 10.819 22.596 11.5 35 .805 14.686-3.1 29.594-11 42l-8.795-104.285z"/><path style="marker:none" d="M179.473 102.56c4.782 14.25 5.826 29.737 3 44.5-3.604 18.824-13.276 36.109-16.5 55-3.228 18.908.376 38.908 10 55.5l6-7a36.148 36.148 0 0 1 1.5-14c2.752-8.791 8.734-16.164 14.846-23.057 6.113-6.893 12.582-13.679 16.654-21.942 4.01-8.139 5.485-17.413 4.837-26.462-.648-9.05-3.366-17.882-7.337-26.038-7.277-14.944-18.863-27.76-33-36.5z"/><path style="marker:none" d="M175.665 256.803a167.014 167.014 0 0 0-35.42 51.329 35.826 35.826 0 0 0 7.954-4.596c5.153-3.94 9.124-9.184 13.093-14.314 3.968-5.13 8.084-10.29 13.424-13.97 5.694-3.926 12.512-5.978 18.208-9.9 7.035-4.845 11.899-12.206 18.22-17.95 3.161-2.873 6.75-5.37 10.803-6.716 4.053-1.348 8.617-1.465 12.52.27 3.796 1.69 6.743 5.065 8.19 8.96 1.448 3.896 1.447 8.261.295 12.254-1.19 4.12-3.65 7.94-7.188 10.366-1.768 1.213-3.789 2.068-5.902 2.434-2.113.366-4.317.238-6.356-.426a12.413 12.413 0 0 1-5.807-4.004 12.093 12.093 0 0 1-2.609-6.548 11.79 11.79 0 0 1 1.568-6.867 11.501 11.501 0 0 1 5.257-4.678c2.068-.904 4.43-1.167 6.62-.626 2.192.541 4.19 1.904 5.401 3.808.878 1.38 1.335 3.04 1.198 4.67-.136 1.63-.885 3.216-2.116 4.293-1.23 1.077-2.942 1.611-4.554 1.34a5.062 5.062 0 0 1-2.23-.964 4.776 4.776 0 0 1-1.49-1.914 4.692 4.692 0 0 1 .215-4.045 4.692 4.692 0 0 1 3.32-2.32 5.277 5.277 0 0 0-3.182-.353 5.438 5.438 0 0 0-2.944 1.702 5.78 5.78 0 0 0-1.404 3.105 6.168 6.168 0 0 0 .542 3.371 6.613 6.613 0 0 0 2.215 2.606c1.199.83 2.66 1.261 4.118 1.28 1.459.017 2.912-.37 4.2-1.054 2.578-1.367 4.427-3.866 5.47-6.59.877-2.288 1.236-4.796.857-7.217-.38-2.42-1.522-4.743-3.331-6.395-2.107-1.924-5.04-2.848-7.888-2.692-2.848.157-5.595 1.349-7.8 3.158-2.206 1.81-3.884 4.214-5.032 6.825-1.148 2.611-1.78 5.429-2.084 8.265-.395 3.671-.242 7.444.884 10.96 1.668 5.214 5.33 9.515 7.955 14.32 4.246 7.773 5.699 17.235 3.024 25.679-1.338 4.222-3.683 8.137-6.866 11.217-3.184 3.079-7.208 5.304-11.538 6.237-6.68 1.439-13.914-.319-19.381-4.417-5.467-4.099-9.144-10.42-10.317-17.15-1.04-5.958-.117-12.347 3.113-17.46 1.615-2.556 3.788-4.77 6.358-6.362 2.57-1.592 5.54-2.556 8.56-2.695 4.682-.214 9.422 1.626 12.735 4.941 3.314 3.316 5.151 8.054 4.942 12.737-.158 3.551-1.508 7.104-4.035 9.605-1.263 1.25-2.804 2.226-4.492 2.784-1.687.558-3.52.693-5.261.339a9.538 9.538 0 0 1-4.177-1.991 9.13 9.13 0 0 1-2.695-3.756 8.756 8.756 0 0 1-.445-4.597 8.412 8.412 0 0 1 2.014-4.152 8.3 8.3 0 0 1 5.846-2.708 8.3 8.3 0 0 1 5.998 2.355 9.266 9.266 0 0 0-4.118-4.402 9.266 9.266 0 0 0-5.959-.901c-1.642.305-3.19 1.066-4.473 2.137-1.282 1.07-2.3 2.447-2.998 3.965-1.398 3.035-1.491 6.571-.66 9.807.703 2.74 2.054 5.317 3.946 7.418 1.893 2.102 4.327 3.72 7.014 4.603 3.888 1.277 8.276.956 11.937-.874 3.66-1.83 6.55-5.148 7.862-9.025a26.602 26.602 0 0 0 .275-16.087 26.602 26.602 0 0 0-9.114-13.258c-3.989-3.089-8.899-5.003-13.935-5.298-5.036-.295-10.175 1.051-14.35 3.884-5.592 3.794-9.214 10.056-10.74 16.64-1.527 6.584-1.112 13.487.134 20.13a82.437 82.437 0 0 0 11.071 28.384l-62.336-31.567z"/><path style="marker:none" d="M87.565 350.205l160.16-161.22-1.768-13.082z" filter="url(#n)"/><circle r="164.756" cy="238.128" cx="91.277" style="marker:none" fill="none" stroke="#000" stroke-width="5.758" stroke-linejoin="round"/><path style="marker:none" d="M183.201 106.606c6.667 14.715 8.432 31.602 4.95 47.376-3.716 16.836-13.095 31.991-16.97 48.79-3.796 16.448-2.028 34.128 4.95 49.498a102.558 102.558 0 0 1 14.848-36.062c4.396-6.673 9.559-12.809 14.081-19.397 4.523-6.587 8.452-13.768 9.96-21.615 1.468-7.628.568-15.587-1.765-22.996-2.332-7.408-6.055-14.311-10.255-20.845a153.539 153.539 0 0 0-19.799-24.749z" fill="#57e389"/><path d="M188.422 115.478c9.84 13.048 13.175 30.767 8.75 46.5-3.63 12.905-11.949 23.937-17.25 36.25-7.277 16.904-8.637 36.288-3.792 54.042-3.405-18.161-1.272-37.323 6.042-54.292 5.118-11.872 12.715-22.747 16-35.25 4.236-16.117.52-34.126-9.75-47.25z" style="marker:none"/><path d="M173.922 227.728c4.284-3.192 8.75-5.57 13.374-7.23-4.458 1.355-8.916 3.026-13.374 7.23zm.796-9.635c6.662-4.519 13.606-7.885 20.798-10.234-6.933 1.917-13.865 4.283-20.798 10.234zm3.447-12.639c6.662-4.52 13.606-7.886 20.798-10.234-6.933 1.917-13.865 4.283-20.798 10.234zm4.672-10.907c7.37-7.083 21.131-12.8 28.324-15.149-6.933 1.917-21.08 4.722-28.324 15.149zm8.763-17.289c5.108-5.362 13.78-7.042 18.765-8.82-4.805 1.452-13.225 2.44-18.765 8.82zm4.685-11.048c5.107-5.363 8.476-6.866 13.461-8.644-4.805 1.452-8.982 1.468-13.461 8.644zm2.651-11.226c2.368-3.33 4.853-5.627 9.838-7.405-4.805 1.451-8.01 2.881-9.838 7.405z" style="marker:none"/></g></g></svg>