<?xml version="1.0" encoding="UTF-8" standalone="no"?>
<!-- Created with Inkscape (http://www.inkscape.org/) -->

<svg
   xmlns:dc="http://purl.org/dc/elements/1.1/"
   xmlns:cc="http://creativecommons.org/ns#"
   xmlns:rdf="http://www.w3.org/1999/02/22-rdf-syntax-ns#"
   xmlns:svg="http://www.w3.org/2000/svg"
   xmlns="http://www.w3.org/2000/svg"
   xmlns:xlink="http://www.w3.org/1999/xlink"
   xmlns:sodipodi="http://sodipodi.sourceforge.net/DTD/sodipodi-0.dtd"
   xmlns:inkscape="http://www.inkscape.org/namespaces/inkscape"
   width="1280"
   height="1024"
   viewBox="0 0 1280 1024"
   version="1.1"
   id="svg2124"
   inkscape:version="0.92.4 (unknown)"
   sodipodi:docname="tuhi-logos-all.svg"
   enable-background="new"
   inkscape:export-filename="/home/jimmac/gfx/logos/tuhi/tuhi-simple.png"
   inkscape:export-xdpi="96"
   inkscape:export-ydpi="96">
  <defs
     id="defs2118">
    <inkscape:path-effect
       is_visible="true"
       id="path-effect19114"
       effect="spiro" />
    <inkscape:path-effect
       is_visible="true"
       id="path-effect19106"
       effect="spiro" />
    <inkscape:path-effect
       is_visible="true"
       id="path-effect19102"
       effect="spiro" />
    <inkscape:path-effect
       is_visible="true"
       id="path-effect19098"
       effect="spiro" />
    <inkscape:path-effect
       is_visible="true"
       id="path-effect19090"
       effect="spiro" />
    <linearGradient
       inkscape:collect="always"
       id="linearGradient19068">
      <stop
         style="stop-color:#deddda;stop-opacity:1;"
         offset="0"
         id="stop19064" />
      <stop
         style="stop-color:#deddda;stop-opacity:0;"
         offset="1"
         id="stop19066" />
    </linearGradient>
    <linearGradient
       inkscape:collect="always"
       id="linearGradient19060">
      <stop
         style="stop-color:#f6f5f4;stop-opacity:1;"
         offset="0"
         id="stop19056" />
      <stop
         style="stop-color:#f6f5f4;stop-opacity:0;"
         offset="1"
         id="stop19058" />
    </linearGradient>
    <inkscape:path-effect
       effect="spiro"
       id="path-effect919"
       is_visible="true" />
    <inkscape:path-effect
       effect="spiro"
       id="path-effect2832"
       is_visible="true" />
    <linearGradient
       inkscape:collect="always"
       id="linearGradient2824">
      <stop
         style="stop-color:#99c1f1;stop-opacity:1"
         offset="0"
         id="stop2820" />
      <stop
         style="stop-color:#ffffff;stop-opacity:0;"
         offset="1"
         id="stop2822" />
    </linearGradient>
    <inkscape:path-effect
       effect="spiro"
       id="path-effect2812"
       is_visible="true" />
    <inkscape:path-effect
       effect="spiro"
       id="path-effect2793"
       is_visible="true" />
    <inkscape:path-effect
       effect="spiro"
       id="path-effect2789"
       is_visible="true" />
    <inkscape:path-effect
       effect="spiro"
       id="path-effect2787"
       is_visible="true" />
    <inkscape:path-effect
       effect="spiro"
       id="path-effect2775"
       is_visible="true" />
    <filter
       inkscape:collect="always"
       style="color-interpolation-filters:sRGB"
       id="filter2743">
      <feBlend
         inkscape:collect="always"
         mode="multiply"
         in2="BackgroundImage"
         id="feBlend2745" />
    </filter>
    <radialGradient
       inkscape:collect="always"
       xlink:href="#linearGradient2824"
       id="radialGradient2826"
       cx="187.53024"
       cy="400.20236"
       fx="187.53024"
       fy="400.20236"
       r="125.53025"
       gradientTransform="matrix(2.1630662,0,0,2.2573179,-218.11009,-508.31733)"
       gradientUnits="userSpaceOnUse" />
    <inkscape:path-effect
       effect="spiro"
       id="path-effect919-7"
       is_visible="true" />
    <inkscape:path-effect
       effect="spiro"
       id="path-effect919-7-8"
       is_visible="true" />
    <radialGradient
       inkscape:collect="always"
       xlink:href="#linearGradient19060"
       id="radialGradient19062"
       cx="312.94751"
       cy="468.45197"
       fx="312.94751"
       fy="468.45197"
       r="31.19736"
       gradientTransform="matrix(7.4428525,-0.06410799,0.03419264,3.9697205,-2030.4372,-1291.0653)"
       gradientUnits="userSpaceOnUse" />
    <radialGradient
       inkscape:collect="always"
       xlink:href="#linearGradient19068"
       id="radialGradient19070"
       cx="361.52719"
       cy="468.23438"
       fx="361.52719"
       fy="468.23438"
       r="26.937635"
       gradientTransform="matrix(21.848521,-1.5084157e-8,0,10.64316,-7579.1667,-4418.1367)"
       gradientUnits="userSpaceOnUse" />
  </defs>
  <sodipodi:namedview
     id="base"
     pagecolor="#ffffff"
     bordercolor="#666666"
     borderopacity="0.26666667"
     inkscape:pageopacity="1"
     inkscape:pageshadow="2"
     inkscape:zoom="0.5"
     inkscape:cx="214.78881"
     inkscape:cy="329.30334"
     inkscape:document-units="px"
     inkscape:current-layer="layer1"
     showgrid="false"
     units="px"
     inkscape:showpageshadow="false"
     borderlayer="true"
     inkscape:snap-page="true"
     inkscape:snap-global="false"
     showborder="true"
     inkscape:window-width="1920"
     inkscape:window-height="1016"
     inkscape:window-x="0"
     inkscape:window-y="27"
     inkscape:window-maximized="1" />
  <metadata
     id="metadata2121">
    <rdf:RDF>
      <cc:Work
         rdf:about="">
        <dc:format>image/svg+xml</dc:format>
        <dc:type
           rdf:resource="http://purl.org/dc/dcmitype/StillImage" />
        <dc:title></dc:title>
      </cc:Work>
    </rdf:RDF>
  </metadata>
  <g
     inkscape:label="logo"
     inkscape:groupmode="layer"
     id="layer1"
     transform="translate(0,-26.066658)">
    <rect
       y="26.066658"
       x="1.5010215e-13"
       height="1024"
       width="1280.0001"
       id="rect915"
       style="opacity:1;vector-effect:none;fill:#ffffff;fill-opacity:1;stroke:none;stroke-width:2.7095592;stroke-linecap:butt;stroke-linejoin:round;stroke-miterlimit:4;stroke-dasharray:none;stroke-dashoffset:0;stroke-opacity:1;marker:none;marker-start:none;marker-mid:none;marker-end:none;paint-order:normal" />
    <rect
       style="opacity:1;vector-effect:none;fill:#009da9;fill-opacity:1;stroke:none;stroke-width:1.91594756;stroke-linecap:butt;stroke-linejoin:round;stroke-miterlimit:4;stroke-dasharray:none;stroke-dashoffset:0;stroke-opacity:1;marker:none;marker-start:none;marker-mid:none;marker-end:none;paint-order:normal"
       id="rect2669"
       width="640"
       height="1024"
       x="640"
       y="26.066666" />
    <rect
       y="664.06665"
       x="640"
       height="386"
       width="640"
       id="rect2684"
       style="opacity:1;vector-effect:none;fill:#00438e;fill-opacity:1;stroke:none;stroke-width:1.17632484;stroke-linecap:butt;stroke-linejoin:round;stroke-miterlimit:4;stroke-dasharray:none;stroke-dashoffset:0;stroke-opacity:1;marker:none;marker-start:none;marker-mid:none;marker-end:none;paint-order:normal" />
    <rect
       style="opacity:1;vector-effect:none;fill:#000641;fill-opacity:1;stroke:none;stroke-width:0.64093512;stroke-linecap:butt;stroke-linejoin:round;stroke-miterlimit:4;stroke-dasharray:none;stroke-dashoffset:0;stroke-opacity:1;marker:none;marker-start:none;marker-mid:none;marker-end:none;paint-order:normal"
       id="rect2686"
       width="190"
       height="386"
       x="1090"
       y="664.06665" />
    <circle
       r="164.75587"
       cy="24.96701"
       cx="-284.14508"
       id="circle19072"
       style="opacity:1;vector-effect:none;fill:#ffffff;fill-opacity:1;stroke:none;stroke-width:10;stroke-linecap:butt;stroke-linejoin:round;stroke-miterlimit:4;stroke-dasharray:none;stroke-dashoffset:0;stroke-opacity:1;marker:none;marker-start:none;marker-mid:none;marker-end:none;paint-order:normal" />
    <path
       style="color:#000000;font-style:normal;font-variant:normal;font-weight:normal;font-stretch:normal;font-size:medium;line-height:normal;font-family:sans-serif;font-variant-ligatures:normal;font-variant-position:normal;font-variant-caps:normal;font-variant-numeric:normal;font-variant-alternates:normal;font-feature-settings:normal;text-indent:0;text-align:start;text-decoration:none;text-decoration-line:none;text-decoration-style:solid;text-decoration-color:#000000;letter-spacing:normal;word-spacing:normal;text-transform:none;writing-mode:lr-tb;direction:ltr;text-orientation:mixed;dominant-baseline:auto;baseline-shift:baseline;text-anchor:start;white-space:normal;shape-padding:0;clip-rule:nonzero;display:inline;overflow:visible;visibility:visible;opacity:1;isolation:auto;mix-blend-mode:normal;color-interpolation:sRGB;color-interpolation-filters:linearRGB;solid-color:#000000;solid-opacity:1;vector-effect:none;fill:#000000;fill-opacity:1;fill-rule:nonzero;stroke:none;stroke-width:10;stroke-linecap:butt;stroke-linejoin:round;stroke-miterlimit:4;stroke-dasharray:none;stroke-dashoffset:0;stroke-opacity:1;marker:none;paint-order:normal;color-rendering:auto;image-rendering:auto;shape-rendering:auto;text-rendering:auto;enable-background:accumulate"
       d="m 319.85547,643.21119 c -27.69838,0 -53.85412,6.65046 -76.96094,18.43555 h -0.16406 v 0.082 c -54.96715,28.10977 -92.63086,85.30755 -92.63086,151.23828 0,93.69435 76.0615,169.75585 169.75586,169.75585 93.69436,0 169.75586,-76.0615 169.75586,-169.75585 0,-93.69436 -76.0615,-169.75586 -169.75586,-169.75586 z m 0,10 c 17.08203,0 33.53029,2.68598 48.95703,7.64063 l 8.15234,151.36132 c 0.77051,14.30478 0.29647,28.94998 -4.75976,42.35352 l -0.18164,0.39648 -6.00391,7.1211 -21.44336,21.44336 c -13.31875,-2.67061 -27.09096,-3.09365 -40.53515,-1.14258 -8.74743,1.26945 -17.33004,3.56135 -25.56446,6.75976 L 252.73047,863.39869 V 667.94557 c 20.40497,-9.45142 43.14198,-14.73438 67.125,-14.73438 z m 64.98242,13.75781 c 8.45828,3.76658 16.53016,8.24077 24.13477,13.35743 3.98156,13.4285 4.71177,27.81418 2.07812,41.57226 -3.60326,18.82328 -13.27514,36.10821 -16.5,55 -3.0424,17.82289 -0.01,36.61455 8.4082,52.60938 l -7.77929,8.56054 c -0.74959,-0.45184 -1.42654,-1.02492 -1.97266,-1.70898 -0.88219,-1.10503 -1.43085,-2.44601 -1.77148,-3.81836 -0.34063,-1.37234 -0.483,-2.78457 -0.625,-4.19141 -1.7796,-17.6309 -3.66057,-35.69087 0.68945,-52.86914 2.45856,-9.70888 6.83453,-18.80469 10.41992,-28.15625 3.5854,-9.35157 6.42315,-19.27803 5.58008,-29.25781 -1.07881,-12.77031 -8.55057,-24.84007 -19.5,-31.5 6.80897,10.39036 10.81941,22.59603 11.5,35 0.80581,14.68601 -3.09878,29.59441 -11,42 l -2.5332,-30.04297 z m -142.10742,6.04102 v 187.41016 c -8.66413,-9.05109 -25.88983,-28.50624 -29.23047,-43.35352 -4.5,-20 16.5,-34.5 16.5,-34.5 0,0 -0.5,-18.5 -9.5,-35 -6.42372,-11.77682 -19.10736,-26.35037 -25.9043,-33.80469 13.13795,-16.57122 29.49688,-30.46736 48.13477,-40.75195 z M 431.80469,698.969 c 16.36178,16.0692 29.27301,35.63434 37.53125,57.4961 l -58.90821,64.82422 c 0.0829,-3.35092 0.62164,-6.69164 1.62305,-9.89063 2.75215,-8.79191 8.73322,-16.16392 14.8457,-23.05664 6.11249,-6.89272 12.58225,-13.67956 16.6543,-21.94336 4.01011,-8.1381 5.48411,-17.41166 4.83594,-26.46094 -0.64817,-9.04929 -3.36409,-17.88222 -7.33594,-26.03906 -2.56759,-5.27296 -5.68269,-10.2723 -9.24609,-14.92969 z m -246.82617,28.30664 c 6.34177,5.56504 16.64972,16.57342 18.02148,30.29102 2,20 -7.5,33.5 -3,55 3.5779,17.09442 31.96899,44.887 43.57812,55.68359 a 5.0005,5.0005 0 0 0 0.61719,0.75586 l 24.4668,24.4668 c -16.77639,8.29474 -31.65002,20.45939 -42.85156,35.45899 13.61574,-13.4041 30.24843,-23.6629 48.24609,-30.06446 l 31.125,31.12696 a 5.0005,5.0005 0 0 0 7.07227,0 l 35.01953,-35.01954 c 3.49132,0.90179 6.93979,1.96469 10.32617,3.21289 14.89064,5.48858 28.57975,14.42695 39.11133,26.29885 2.69782,3.0411 5.2247,6.333 6.65429,10.1386 1.66255,4.4259 1.7265,9.4328 0.17969,13.9004 -0.0888,0.2565 -0.2016,0.5034 -0.30078,0.7559 -24.26818,14.8678 -52.8181,23.4414 -83.38867,23.4414 -88.28996,0 -159.75586,-71.4659 -159.75586,-159.75585 0,-31.54286 9.12709,-60.93501 24.87891,-85.69141 z m 287.97656,39.91602 c 4.32326,14.50011 6.65625,29.86227 6.65625,45.77539 0,49.6676 -22.6161,94.01125 -58.1211,123.30275 -4.13163,-6.4703 -8.89457,-12.5366 -14.18945,-18.0977 -4.65362,-8.0452 -7.9499,-16.87466 -9.66406,-26.00974 -1.24643,-6.64246 -1.66145,-13.5452 -0.13477,-20.1289 1.52668,-6.5837 5.14975,-12.84584 10.74219,-16.64063 4.17444,-2.83259 9.31154,-4.17781 14.34766,-3.88281 5.03612,0.295 9.94694,2.20808 13.93554,5.29687 4.30868,3.33666 7.54159,8.04174 9.11328,13.25977 1.5717,5.21802 1.47563,10.92466 -0.27343,16.08594 -1.31134,3.87715 -4.20248,7.19499 -7.86328,9.02539 -3.66081,1.83041 -8.04898,2.15221 -11.9375,0.875 -2.68691,-0.88253 -5.11927,-2.50186 -7.01172,-4.60352 -1.89245,-2.10166 -3.24409,-4.67865 -3.94727,-7.41797 -0.83079,-3.23644 -0.73709,-6.77339 0.66016,-9.80859 0.69862,-1.5176 1.71576,-2.8939 2.99804,-3.96484 1.28229,-1.07095 2.83023,-1.83079 4.47266,-2.13672 2.01231,-0.37483 4.14763,-0.051 5.95899,0.90234 1.81136,0.95335 3.28686,2.52944 4.11718,4.40039 -1.57221,-1.54928 -3.78979,-2.41941 -5.99609,-2.35351 -2.2063,0.0659 -4.37067,1.06673 -5.84766,2.70703 -1.04262,1.15791 -1.74412,2.61769 -2.01367,4.15234 -0.26955,1.53465 -0.1081,3.13914 0.44531,4.5957 0.55341,1.45655 1.49655,2.76246 2.69532,3.75782 1.19878,0.99536 2.65078,1.68001 4.17773,1.99023 1.74176,0.35385 3.57229,0.21813 5.25977,-0.33984 1.68748,-0.55797 3.22911,-1.53277 4.49218,-2.78321 2.52612,-2.50088 3.87695,-6.05431 4.03516,-9.60546 0.20862,-4.68267 -1.62792,-9.42095 -4.94141,-12.73633 -3.31349,-3.31537 -8.05393,-5.15624 -12.73632,-4.94141 -3.02063,0.13859 -5.98823,1.10264 -8.5586,2.69531 -2.57037,1.59267 -4.74223,3.80505 -6.35742,6.36133 -3.23037,5.11257 -4.15423,11.50324 -3.11523,17.46094 1.17385,6.73092 4.85162,13.05185 10.31836,17.15039 5.46673,4.09849 12.70158,5.85489 19.38085,4.41599 4.32952,-0.9327 8.35369,-3.15726 11.53711,-6.2363 3.18342,-3.07905 5.52968,-6.99474 6.86719,-11.2168 2.67501,-8.44411 1.22077,-17.90609 -3.02539,-25.67969 -2.62411,-4.80406 -6.28633,-9.10684 -7.95508,-14.32031 -1.12553,-3.51634 -1.27753,-7.28806 -0.88281,-10.95898 0.30497,-2.8362 0.93623,-5.65417 2.08398,-8.26563 1.14776,-2.61145 2.82598,-5.01484 5.03125,-6.82422 2.20527,-1.80937 4.95254,-3.00171 7.80079,-3.1582 2.84825,-0.15649 5.78205,0.76807 7.88867,2.6914 1.80934,1.65191 2.95081,3.97407 3.33008,6.39454 0.37928,2.42047 0.0209,4.9289 -0.85547,7.21679 -1.0436,2.72434 -2.89348,5.22468 -5.47071,6.5918 -1.28861,0.68357 -2.74258,1.07053 -4.20117,1.05273 -1.45858,-0.0177 -2.91844,-0.44815 -4.11719,-1.27929 -0.94779,-0.65714 -1.72527,-1.56121 -2.21484,-2.60547 -0.48952,-1.04425 -0.68815,-2.22695 -0.54297,-3.37109 0.14518,-1.14415 0.63581,-2.24549 1.4043,-3.10547 0.76849,-0.85998 1.81498,-1.47399 2.94531,-1.70313 1.06293,-0.21548 2.19194,-0.09 3.18164,0.35352 -1.38054,0.21711 -2.64162,1.09866 -3.32031,2.32031 -0.67869,1.22164 -0.75984,2.75806 -0.21484,4.04492 0.31891,0.75301 0.83913,1.41673 1.48828,1.91406 0.64915,0.49733 1.42405,0.82717 2.23047,0.96289 1.61284,0.27144 3.324,-0.26265 4.55468,-1.33984 1.23069,-1.0772 1.9803,-2.66319 2.11719,-4.29297 0.13689,-1.62978 -0.32148,-3.28988 -1.19922,-4.66992 -1.21116,-1.90425 -3.20941,-3.26564 -5.40039,-3.80664 -2.19097,-0.541 -4.55354,-0.27959 -6.62109,0.625 -2.18471,0.95586 -4.04733,2.62394 -5.25586,4.67969 -1.20853,2.05575 -1.75869,4.48817 -1.56836,6.86523 0.19033,2.37706 1.11788,4.68816 2.60937,6.54883 1.4915,1.86067 3.53918,3.2655 5.80664,4.00391 2.03913,0.66406 4.24243,0.79196 6.35547,0.42578 2.11303,-0.36617 4.1338,-1.22066 5.90235,-2.4336 3.53712,-2.42587 5.99791,-6.24639 7.1875,-10.36718 1.15258,-3.99259 1.1527,-8.35663 -0.29492,-12.25196 -1.44764,-3.89533 -4.39242,-7.27225 -8.18946,-8.96094 -3.90254,-1.7356 -8.46648,-1.61864 -12.51953,-0.27148 -4.05306,1.34716 -7.64179,3.84443 -10.80273,6.7168 -6.32189,5.74475 -11.18541,13.10433 -18.22071,17.94922 -5.69604,3.9226 -12.51478,5.97512 -18.20898,9.90039 -5.3398,3.68097 -9.45514,8.84114 -13.42383,13.9707 -3.96869,5.12957 -7.93923,10.37568 -13.0918,14.31445 -2.43973,1.86499 -5.12083,3.41353 -7.95507,4.59571 0.62833,-1.4232 1.2754,-2.83715 1.94335,-4.24219 3.29927,-6.94007 7.0923,-13.64467 11.31836,-20.0625 z"
       id="path19086"
       inkscape:connector-curvature="0" />
    <g
       id="g888">
      <text
         id="text875"
         y="488.66159"
         x="885.64575"
         style="font-style:normal;font-variant:normal;font-weight:bold;font-stretch:normal;font-size:37.75621033px;line-height:1.25;font-family:Montserrat;-inkscape-font-specification:'Montserrat, Bold';font-variant-ligatures:normal;font-variant-caps:normal;font-variant-numeric:normal;font-feature-settings:normal;text-align:start;letter-spacing:0px;word-spacing:0px;writing-mode:lr-tb;text-anchor:start;fill:#ffffff;fill-opacity:1;stroke:none;stroke-width:9.43905258"
         xml:space="preserve"><tspan
           style="letter-spacing:18.5px;fill:#ffffff;stroke-width:9.43905258"
           y="488.66159"
           x="885.64575"
           id="tspan873"
           sodipodi:role="line">TUHI</tspan></text>
      <path
         id="path19181"
         d="m 957.85549,187.21119 c -20.5191,0 -39.89542,4.92669 -57.01303,13.65713 h -0.12149 v 0.0607 c -40.71994,20.82383 -68.62137,63.19619 -68.62137,112.03796 0,69.40917 56.34668,125.75586 125.75589,125.75586 69.40911,0 125.75581,-56.34669 125.75581,-125.75586 0,-69.40918 -56.3467,-125.75586 -125.75581,-125.75586 z m 0,7.40803 c 12.65442,0 24.83939,1.9898 36.26756,5.66021 l 6.03935,112.12911 c 0.5707,10.59705 0.2196,21.44626 -3.5261,31.37567 l -0.13461,0.29372 -4.44772,5.27534 -15.88528,15.88532 c -9.86662,-1.97839 -20.06912,-2.29178 -30.02865,-0.84643 -6.48011,0.94043 -12.83813,2.63826 -18.93822,5.00766 L 908.129,350.32701 V 205.53452 c 15.11604,-7.00166 31.95971,-10.9153 49.72649,-10.9153 z m 48.13921,10.19184 c 6.2659,2.79031 12.2456,6.1048 17.8793,9.89525 2.9493,9.94789 3.4902,20.60487 1.5394,30.7969 -2.6694,13.94436 -9.8343,26.74912 -12.2233,40.74423 -2.2539,13.20328 -0.01,27.12421 6.2288,38.97325 l -5.7628,6.34169 c -0.5554,-0.33471 -1.0569,-0.75926 -1.4615,-1.26601 -0.6535,-0.81861 -1.0599,-1.81202 -1.3123,-2.82867 -0.2523,-1.01663 -0.3578,-2.06281 -0.4631,-3.10501 -1.3183,-13.06103 -2.7116,-26.43995 0.5108,-39.16568 1.8213,-7.19237 5.0631,-13.93059 7.719,-20.85826 2.6562,-6.9277 4.7585,-14.28126 4.1339,-21.67432 -0.7992,-9.46029 -6.3344,-18.40162 -14.4458,-23.33533 5.0442,7.69723 8.0152,16.73923 8.5195,25.92815 0.5969,10.87946 -2.2957,21.92365 -8.1489,31.11378 l -1.8767,-22.25597 z m -105.27373,4.47522 v 138.83423 c -6.41848,-6.70508 -19.17936,-21.11755 -21.65409,-32.11646 -3.33361,-14.81609 12.22327,-25.55774 12.22327,-25.55774 0,0 -0.37041,-13.70487 -7.03763,-25.92816 -4.75871,-8.72432 -14.15485,-19.52046 -19.19003,-25.04264 9.73262,-12.27604 21.85143,-22.57036 35.65848,-30.18923 z M 1040.788,228.5168 c 12.1208,11.90414 21.6855,26.39807 27.8032,42.59335 l -43.6395,48.02206 c 0.061,-2.48237 0.4606,-4.95719 1.2025,-7.32701 2.0388,-6.51309 6.4696,-11.97431 10.9977,-17.08047 4.5282,-5.10615 9.3209,-10.13387 12.3377,-16.25573 2.9705,-6.02874 4.0626,-12.89862 3.5824,-19.60238 -0.4803,-6.70374 -2.4923,-13.24722 -5.4346,-19.28983 -1.902,-3.90624 -4.2096,-7.60977 -6.8494,-11.05999 z m -182.84996,20.96968 c 4.69802,4.12261 12.33417,12.27766 13.35041,22.43973 1.48159,14.81607 -5.55604,24.81693 -2.22243,40.74423 2.65053,12.66362 23.68279,33.25247 32.28284,41.25062 a 3.7043915,3.7043915 0 0 0 0.45723,0.55996 l 18.12511,18.1251 c -12.42804,6.14477 -23.44645,15.15642 -31.74465,26.26817 10.08665,-9.92981 22.40823,-17.52959 35.74091,-22.27188 L 946.985,399.6614 a 3.7043915,3.7043915 0 0 0 5.23919,0 l 25.94259,-25.94263 c 2.58645,0.66805 5.14104,1.45546 7.64969,2.38012 11.03099,4.06598 21.17203,10.68756 28.97383,19.48229 1.9985,2.25291 3.8705,4.69152 4.9295,7.51077 1.2316,3.27869 1.2791,6.98783 0.1331,10.29747 -0.066,0.18996 -0.1493,0.37291 -0.2229,0.55993 -17.9777,11.01419 -39.12776,17.36552 -61.77451,17.36552 -65.40561,0 -118.34786,-52.94226 -118.34786,-118.34783 0,-23.36707 6.7614,-45.14092 18.43041,-63.48056 z m 213.33416,29.56996 c 3.2028,10.74174 4.931,22.12209 4.931,33.9106 0,36.79396 -16.754,69.64392 -43.0563,91.34318 -3.0606,-4.79324 -6.589,-9.28715 -10.5115,-13.40682 -3.4474,-5.95993 -5.8894,-12.50084 -7.1593,-19.26814 -0.9233,-4.92076 -1.2307,-10.03435 -0.1,-14.91158 1.1309,-4.87723 3.8149,-9.51624 7.9578,-12.32744 3.0926,-2.09839 6.898,-3.09493 10.6289,-2.8764 3.7308,0.21854 7.3687,1.63576 10.3234,3.92394 3.192,2.47181 5.587,5.95736 6.7511,9.82289 1.1644,3.86554 1.0933,8.09302 -0.2024,11.91654 -0.9715,2.87221 -3.1132,5.33008 -5.8252,6.68604 -2.712,1.35599 -5.9628,1.59436 -8.8432,0.6482 -1.9906,-0.65377 -3.7925,-1.85338 -5.1944,-3.4103 -1.4019,-1.55692 -2.4032,-3.46597 -2.9241,-5.49526 -0.6155,-2.39756 -0.5461,-5.01775 0.489,-7.26624 0.5176,-1.12424 1.271,-2.14383 2.221,-2.93718 0.9499,-0.79336 2.0965,-1.35626 3.3134,-1.58289 1.4907,-0.27767 3.0724,-0.0378 4.4144,0.66846 1.3417,0.70624 2.4347,1.87382 3.05,3.25983 -1.1647,-1.14772 -2.8075,-1.79233 -4.442,-1.74349 -1.6344,0.0488 -3.2378,0.79023 -4.3319,2.00537 -0.7724,0.85779 -1.2922,1.9392 -1.4918,3.07607 -0.1996,1.13688 -0.081,2.3255 0.3299,3.40453 0.41,1.07902 1.1086,2.04642 1.9967,2.78378 0.888,0.73739 1.9637,1.24458 3.0949,1.47439 1.2903,0.26214 2.6463,0.16159 3.8964,-0.25175 1.2502,-0.41337 2.3922,-1.13548 3.3278,-2.06182 1.8714,-1.85267 2.8721,-4.48506 2.9894,-7.11577 0.1545,-3.46894 -1.2061,-6.97909 -3.6606,-9.43513 -2.4548,-2.45605 -5.9664,-3.81976 -9.4352,-3.66061 -2.2378,0.10267 -4.4361,0.81684 -6.3402,1.9967 -1.9041,1.17985 -3.5132,2.8188 -4.7096,4.7125 -2.3932,3.7874 -3.0776,8.52164 -2.3078,12.93514 0.8695,4.98629 3.594,9.66887 7.6439,12.70508 4.0497,3.03621 9.4095,4.33735 14.3574,3.27139 3.2073,-0.69095 6.1884,-2.33893 8.5466,-4.61988 2.3584,-2.28099 4.0965,-5.18173 5.0873,-8.30946 1.9816,-6.25544 0.9045,-13.26491 -2.2412,-19.02362 -1.9439,-3.55886 -4.657,-6.74639 -5.8931,-10.60856 -0.8338,-2.60491 -0.9464,-5.39902 -0.6541,-8.11845 0.226,-2.10108 0.6937,-4.18864 1.544,-6.12321 0.8501,-1.93457 2.0935,-3.71502 3.7271,-5.05541 1.6336,-1.34039 3.6688,-2.22367 5.7789,-2.33961 2.1099,-0.11593 4.2833,0.56899 5.8438,1.9938 1.3405,1.22375 2.1861,2.944 2.467,4.73709 0.281,1.79311 0.016,3.65136 -0.6337,5.34625 -0.7731,2.01819 -2.1434,3.87045 -4.0528,4.88323 -0.9546,0.50638 -2.0317,0.79304 -3.1122,0.77986 -1.0805,-0.0132 -2.162,-0.33199 -3.05,-0.94771 -0.7021,-0.4868 -1.278,-1.15654 -1.6408,-1.93014 -0.3626,-0.77359 -0.5098,-1.64973 -0.4022,-2.49732 0.1075,-0.84759 0.471,-1.66348 1.0404,-2.30054 0.5692,-0.63708 1.3444,-1.09194 2.1819,-1.26169 0.7874,-0.15962 1.6238,-0.0666 2.3569,0.2619 -1.0226,0.16083 -1.957,0.81388 -2.4597,1.71889 -0.5028,0.905 -0.5628,2.04318 -0.1592,2.99649 0.2363,0.55783 0.6217,1.04952 1.1025,1.41794 0.481,0.36843 1.0549,0.61279 1.6523,0.71333 1.1949,0.20108 2.4626,-0.19459 3.3743,-0.99257 0.9117,-0.79799 1.4669,-1.9729 1.5683,-3.18025 0.1014,-1.20735 -0.2381,-2.43716 -0.8882,-3.4595 -0.8974,-1.41066 -2.3776,-2.41919 -4.0007,-2.81997 -1.6231,-0.40078 -3.3734,-0.20713 -4.905,0.46301 -1.6185,0.70809 -2.9982,1.94381 -3.8936,3.46672 -0.8953,1.52291 -1.3029,3.32486 -1.1618,5.0858 0.1409,1.76093 0.828,3.473 1.9329,4.8514 1.1051,1.37839 2.6218,2.41909 4.3017,2.96611 1.5106,0.49194 3.1428,0.58668 4.7082,0.31542 1.5654,-0.27126 3.0624,-0.90427 4.3724,-1.80282 2.6203,-1.79708 4.4434,-4.62735 5.3245,-7.68005 0.854,-2.95773 0.8541,-6.19063 -0.2184,-9.07629 -1.0724,-2.88569 -3.2538,-5.38733 -6.0668,-6.63831 -2.8909,-1.28574 -6.2721,-1.1991 -9.2745,-0.20111 -3.0026,0.99798 -5.6611,2.84795 -8.0026,4.97582 -4.6833,4.25574 -8.2863,9.70773 -13.4982,13.29685 -4.2196,2.90589 -9.2708,4.42642 -13.4891,7.33426 -3.9558,2.72688 -7.0044,6.54956 -9.9446,10.34955 -2.9399,3.80002 -5.8813,7.68636 -9.6983,10.60421 -1.80748,1.38159 -3.79361,2.52876 -5.8932,3.40452 0.46545,-1.05431 0.94481,-2.10176 1.43961,-3.14263 2.44413,-5.14123 5.25389,-10.10802 8.38459,-14.86238 z"
         style="color:#000000;font-style:normal;font-variant:normal;font-weight:normal;font-stretch:normal;font-size:medium;line-height:normal;font-family:sans-serif;font-variant-ligatures:normal;font-variant-position:normal;font-variant-caps:normal;font-variant-numeric:normal;font-variant-alternates:normal;font-feature-settings:normal;text-indent:0;text-align:start;text-decoration:none;text-decoration-line:none;text-decoration-style:solid;text-decoration-color:#000000;letter-spacing:normal;word-spacing:normal;text-transform:none;writing-mode:lr-tb;direction:ltr;text-orientation:mixed;dominant-baseline:auto;baseline-shift:baseline;text-anchor:start;white-space:normal;shape-padding:0;clip-rule:nonzero;display:inline;overflow:visible;visibility:visible;opacity:1;isolation:auto;mix-blend-mode:normal;color-interpolation:sRGB;color-interpolation-filters:linearRGB;solid-color:#000000;solid-opacity:1;vector-effect:none;fill:#ffffff;fill-opacity:1;fill-rule:nonzero;stroke:none;stroke-width:7.40804195;stroke-linecap:butt;stroke-linejoin:round;stroke-miterlimit:4;stroke-dasharray:none;stroke-dashoffset:0;stroke-opacity:1;marker:none;paint-order:normal;color-rendering:auto;image-rendering:auto;shape-rendering:auto;text-rendering:auto;enable-background:accumulate"
         inkscape:connector-curvature="0" />
    </g>
    <flowRoot
       xml:space="preserve"
       id="flowRoot877"
       style="fill:black;fill-opacity:1;stroke:none;font-family:Montserrat;font-style:normal;font-weight:bold;font-size:4px;line-height:1.25;letter-spacing:0px;word-spacing:0px;-inkscape-font-specification:'Montserrat, Bold';font-stretch:normal;font-variant:normal;text-anchor:start;text-align:start;writing-mode:lr;font-variant-ligatures:normal;font-variant-caps:normal;font-variant-numeric:normal;font-feature-settings:normal"><flowRegion
         id="flowRegion879"><rect
           id="rect881"
           width="723"
           height="126"
           x="709"
           y="463" /></flowRegion><flowPara
         id="flowPara883" /></flowRoot>    <use
       x="0"
       y="0"
       xlink:href="#g888"
       id="use890"
       transform="matrix(0.46255859,0,0,0.46255859,430.48646,713.87048)"
       width="100%"
       height="100%" />
    <g
       id="g916"
       transform="translate(-2,-186)">
      <text
         transform="matrix(11.258872,0,0,11.258872,-3120.4945,-7002.1351)"
         id="text2749"
         y="685.86847"
         x="299.15558"
         style="font-style:normal;font-variant:normal;font-weight:800;font-stretch:normal;font-size:4.00001669px;line-height:1.25;font-family:Montserrat;-inkscape-font-specification:'Montserrat, Ultra-Bold';font-variant-ligatures:normal;font-variant-caps:normal;font-variant-numeric:normal;font-feature-settings:normal;text-align:start;letter-spacing:0px;word-spacing:0px;writing-mode:lr-tb;text-anchor:start;fill:#000000;fill-opacity:1;stroke:none;filter:url(#filter2743)"
         xml:space="preserve"><tspan
           style="font-style:normal;font-variant:normal;font-weight:800;font-stretch:normal;font-size:4.00001669px;font-family:Montserrat;-inkscape-font-specification:'Montserrat, Ultra-Bold';font-variant-ligatures:normal;font-variant-caps:normal;font-variant-numeric:normal;font-feature-settings:normal;text-align:start;letter-spacing:1.43622279px;writing-mode:lr-tb;text-anchor:start"
           y="685.86847"
           x="299.15558"
           id="tspan2747"
           sodipodi:role="line">TUHI</tspan></text>
      <circle
         r="164.75587"
         cy="482.96701"
         cx="323.85492"
         id="path2769"
         style="opacity:1;vector-effect:none;fill:#ffffff;fill-opacity:1;stroke:none;stroke-width:10;stroke-linecap:butt;stroke-linejoin:round;stroke-miterlimit:4;stroke-dasharray:none;stroke-dashoffset:0;stroke-opacity:1;marker:none;marker-start:none;marker-mid:none;marker-end:none;paint-order:normal" />
      <path
         sodipodi:nodetypes="cssccscssc"
         inkscape:connector-curvature="0"
         id="path2818"
         d="m 192,387.06666 c 0,0 24,18 29,33 5,15 -16,36 -11,60 5,24 102,117 102,117 l 37,-39 c 0,0 26,-11 45,12 19,23 17,51 17,51 0,0 -33.66769,28 -88,28 -86.00581,0 -163,-75.02518 -163,-148 0,-84.14868 32,-114 32,-114 z"
         style="opacity:1;vector-effect:none;fill:url(#radialGradient2826);fill-opacity:1;stroke:none;stroke-width:10;stroke-linecap:butt;stroke-linejoin:round;stroke-miterlimit:4;stroke-dasharray:none;stroke-dashoffset:0;stroke-opacity:1;marker:none;marker-start:none;marker-mid:none;marker-end:none;paint-order:normal" />
      <path
         sodipodi:nodetypes="ccscsc"
         inkscape:connector-curvature="0"
         id="path2814"
         d="m 478,432.06666 -121,123 c 0,0 29.40381,8.59099 40.40381,23.59099 11,15 19.59619,38.40901 19.59619,38.40901 0,0 45.01692,-46.29522 60,-69 17.74207,-26.88564 19.94072,-117.72188 1,-116 z"
         style="opacity:1;vector-effect:none;fill:#2ec27e;fill-opacity:1;stroke:none;stroke-width:10;stroke-linecap:butt;stroke-linejoin:round;stroke-miterlimit:4;stroke-dasharray:none;stroke-dashoffset:0;stroke-opacity:1;marker:none;marker-start:none;marker-mid:none;marker-end:none;paint-order:normal" />
      <path
         inkscape:connector-curvature="0"
         id="path2816"
         d="m 254,335.06666 v 202 c 0,0 -38,-23 -41,-55 -3,-32 19,-33 10,-56 -9,-23 -30,-43 -30,-43 0,0 19,-28 36,-37 17,-9 25,-11 25,-11 z"
         style="opacity:1;vector-effect:none;fill:#ffbe6f;fill-opacity:1;stroke:none;stroke-width:10;stroke-linecap:butt;stroke-linejoin:round;stroke-miterlimit:4;stroke-dasharray:none;stroke-dashoffset:0;stroke-opacity:1;marker:none;marker-start:none;marker-mid:none;marker-end:none;paint-order:normal" />
      <path
         style="opacity:1;vector-effect:none;fill:url(#radialGradient19062);fill-opacity:1;fill-rule:nonzero;stroke:none;stroke-width:0.01129822px;stroke-linecap:butt;stroke-linejoin:miter;stroke-miterlimit:4;stroke-dasharray:none;stroke-dashoffset:0;stroke-opacity:1;marker:none;marker-start:none;marker-mid:none;marker-end:none;paint-order:normal"
         d="M 281.60528,565.34496 V 323.06666 L 339.73001,317.64617 344,565.06666 Z"
         id="path19034"
         inkscape:connector-curvature="0"
         sodipodi:nodetypes="ccccc" />
      <path
         style="opacity:1;vector-effect:none;fill:#26a269;fill-opacity:1;fill-rule:nonzero;stroke:none;stroke-width:10;stroke-linecap:butt;stroke-linejoin:round;stroke-miterlimit:4;stroke-dasharray:none;stroke-dashoffset:0;stroke-opacity:1;marker:none;marker-start:none;marker-mid:none;marker-end:none;paint-order:normal"
         d="M 383.70593,329.28221 392.5,433.56666 386.93816,519.77377 478,432.06666 c 0,0 -6.16678,-39.80619 -36.05826,-62.23672 -29.89149,-22.43054 -58.23581,-40.54773 -58.23581,-40.54773 z"
         id="path1029"
         inkscape:connector-curvature="0" />
      <path
         sodipodi:nodetypes="ccccc"
         inkscape:connector-curvature="0"
         id="path19036"
         d="m 393.60528,515.34496 -12,-189.2783 -41.87527,-8.42049 L 344,565.06666 Z"
         style="opacity:1;vector-effect:none;fill:url(#radialGradient19070);fill-opacity:1;fill-rule:nonzero;stroke:none;stroke-width:0.01129822px;stroke-linecap:butt;stroke-linejoin:miter;stroke-miterlimit:4;stroke-dasharray:none;stroke-dashoffset:0;stroke-opacity:1;marker:none;marker-start:none;marker-mid:none;marker-end:none;paint-order:normal" />
      <path
         sodipodi:nodetypes="cccccc"
         inkscape:connector-curvature="0"
         id="path2771"
         d="M 251.73001,331.64617 V 535.4697 l 60.98796,60.98796 60.98796,-60.98796 13.23223,-15.69593 -3.23223,-190.49156"
         style="opacity:1;vector-effect:none;fill:none;fill-opacity:1;stroke:#000000;stroke-width:10;stroke-linecap:butt;stroke-linejoin:round;stroke-miterlimit:4;stroke-dasharray:none;stroke-dashoffset:0;stroke-opacity:1;marker:none;marker-start:none;marker-mid:none;marker-end:none;paint-order:normal" />
      <path
         inkscape:original-d="m 229.8097,598.93253 c 0,0 40.04773,-49.37615 78.2315,-46.54772 38.18376,2.82842 121.53658,60.79036 121.53658,60.79036 0,0 -6.02082,2.55115 -30.76956,16.16296 0,0 12.79899,-12.69239 8.55635,-24.71321 -2.12132,-6.01041 14.94029,-2.66966 -6.65343,-10.13782 -27.73025,-9.59047 -59.17897,-34.5557 -85.91258,-33.03123 -45.25484,2.12132 -84.98886,37.47666 -84.98886,37.47666 z"
         inkscape:path-effect="#path-effect2775"
         sodipodi:nodetypes="csccsscc"
         inkscape:connector-curvature="0"
         id="path2773"
         d="m 229.8097,598.93253 c 18.63146,-24.94869 47.41641,-42.07573 78.2315,-46.54772 23.85631,-3.46211 48.74281,0.54992 70.3025,11.33368 21.55969,10.78376 39.69613,28.29102 51.23408,49.45668 l -30.76956,16.16296 c 4.04327,-2.45035 7.19045,-6.34513 8.73726,-10.81275 1.54681,-4.46763 1.48164,-9.4746 -0.18091,-13.90046 -1.42959,-3.80568 -3.95561,-7.09666 -6.65343,-10.13782 -10.53158,-11.87188 -24.22068,-20.81019 -39.11132,-26.29877 -14.89064,-5.48859 -30.95363,-7.57407 -46.80126,-6.73246 -31.60479,1.67841 -62.4348,15.2732 -84.98886,37.47666 z"
         style="opacity:1;vector-effect:none;fill:#000000;fill-opacity:1;stroke:none;stroke-width:2;stroke-linecap:butt;stroke-linejoin:round;stroke-miterlimit:4;stroke-dasharray:none;stroke-dashoffset:0;stroke-opacity:1;marker:none;marker-start:none;marker-mid:none;marker-end:none;paint-order:normal" />
      <path
         sodipodi:nodetypes="cssccscscc"
         inkscape:connector-curvature="0"
         id="path2779"
         d="m 184,393.31666 c 0,0 21,14.25 23,34.25 2,20 -7.5,33.5 -3,55 4.5,21.5 48.73001,60.40304 48.73001,60.40304 l -1,-7.5 c 0,0 -29.73001,-28.40304 -34.23001,-48.40304 -4.5,-20 16.5,-34.5 16.5,-34.5 0,0 -0.5,-18.5 -9.5,-35 -9,-16.5 -30.5,-38.75 -30.5,-38.75 z"
         style="opacity:1;vector-effect:none;fill:#000000;fill-opacity:1;stroke:none;stroke-width:2;stroke-linecap:butt;stroke-linejoin:round;stroke-miterlimit:4;stroke-dasharray:none;stroke-dashoffset:0;stroke-opacity:1;marker:none;marker-start:none;marker-mid:none;marker-end:none;paint-order:normal" />
      <path
         inkscape:connector-curvature="0"
         id="path2781"
         d="m 281.60528,565.34496 31.11269,31.1127 37.65344,-37.47666 c 0,0 -22.27386,-4.06586 -36.94633,-1.76777 -14.67246,2.2981 -31.8198,8.13173 -31.8198,8.13173 z"
         style="opacity:1;vector-effect:none;fill:#000000;fill-opacity:1;stroke:none;stroke-width:2;stroke-linecap:butt;stroke-linejoin:round;stroke-miterlimit:4;stroke-dasharray:none;stroke-dashoffset:0;stroke-opacity:1;marker:none;marker-start:none;marker-mid:none;marker-end:none;paint-order:normal" />
      <path
         inkscape:original-d="m 372.5,325.06666 8.46447,157.14645 c 1.29174,23.98178 -4.75854,42.35355 -4.75854,42.35355 l -6.20593,13.5 34,-29 c 0,0 -6.29289,1.29289 -6.79289,-2.70711 -0.25,-2 -1.52145,4.44912 -2.39645,-8.00983 -0.875,-12.45894 -2.06066,-43.11885 0.68934,-52.86885 5.5,-19.5 20,-40.41421 16,-57.41421 -4,-17 -19.5,-31.5 -19.5,-31.5 0,0 11.5,20.5 11.5,35 0,14.5 -11,42 -11,42 l -8.79407,-104.28445 z"
         inkscape:path-effect="#path-effect2812"
         sodipodi:nodetypes="cscccsssscsccc"
         inkscape:connector-curvature="0"
         id="path2783"
         d="m 372.5,325.06666 8.46447,157.14645 c 0.77051,14.30478 0.29769,28.95001 -4.75854,42.35355 l -6.20593,13.5 34,-29 c -1.26273,0.17615 -2.57058,0.018 -3.75495,-0.45396 -1.18438,-0.472 -2.24249,-1.25677 -3.03794,-2.25315 -0.88219,-1.10503 -1.43104,-2.44567 -1.77167,-3.81802 -0.34063,-1.37234 -0.48278,-2.78497 -0.62478,-4.19181 -1.7796,-17.6309 -3.66068,-35.69058 0.68934,-52.86885 2.45856,-9.70888 6.83445,-18.80399 10.41984,-28.15555 3.5854,-9.35157 6.42323,-19.27888 5.58016,-29.25866 -1.07881,-12.77031 -8.55057,-24.84007 -19.5,-31.5 6.80897,10.39036 10.81941,22.59603 11.5,35 0.80581,14.68601 -3.09878,29.59441 -11,42 l -8.79407,-104.28445 z"
         style="opacity:1;vector-effect:none;fill:#000000;fill-opacity:1;stroke:none;stroke-width:2;stroke-linecap:butt;stroke-linejoin:round;stroke-miterlimit:4;stroke-dasharray:none;stroke-dashoffset:0;stroke-opacity:1;marker:none;marker-start:none;marker-mid:none;marker-end:none;paint-order:normal" />
      <path
         transform="translate(-4.9497475,-11.667262)"
         inkscape:original-d="m 417,359.06666 c 0,0 5.5,27.5 3,44.5 -2.5,17 -17,40 -16.5,55 0.5,15 10,55.5 10,55.5 l 6,-7 c 0,0 -1.5,-4 1.5,-14 3,-10 29.5,-31.5 31.5,-45 2,-13.5 6.5,-37 -2.5,-52.5 -9,-15.5 -33,-36.5 -33,-36.5 z"
         inkscape:path-effect="#path-effect2787"
         inkscape:connector-curvature="0"
         id="path2785"
         d="m 417,359.06666 c 4.78201,14.25026 5.82605,29.73683 3,44.5 -3.60326,18.82328 -13.27514,36.10821 -16.5,55 -3.22759,18.90777 0.37603,38.90783 10,55.5 l 6,-7 c -0.42409,-4.70468 0.0888,-9.49195 1.5,-14 2.75215,-8.79191 8.73429,-16.16487 14.84677,-23.05759 6.11249,-6.89272 12.58118,-13.67861 16.65323,-21.94241 4.01011,-8.1381 5.48528,-17.41259 4.83711,-26.46187 -0.64817,-9.04929 -3.36526,-17.88129 -7.33711,-26.03813 -7.27671,-14.94391 -18.86275,-27.75877 -33,-36.5 z"
         style="opacity:1;vector-effect:none;fill:#000000;fill-opacity:1;stroke:none;stroke-width:2;stroke-linecap:butt;stroke-linejoin:round;stroke-miterlimit:4;stroke-dasharray:none;stroke-dashoffset:0;stroke-opacity:1;marker:none;marker-start:none;marker-mid:none;marker-end:none;paint-order:normal" />
      <path
         sodipodi:nodetypes="cscscsssssccccscsscscscssccssscscsccc"
         inkscape:original-d="m 408.24264,501.64204 c 0,0 -18.4698,26.5434 -33.47605,47.08592 -1.52463,2.08711 -1.94454,4.24263 -1.94454,4.24263 0,0 3.0052,1.06067 7.95495,-4.59619 4.94975,-5.65685 15.55635,-23.68808 26.51651,-28.28427 10.96015,-4.5962 12.55114,-0.70711 18.20799,-9.89949 5.65686,-9.19239 33.05725,-27.57717 41.54253,-24.39519 8.48528,3.18198 12.02081,14.84924 8.48528,21.2132 -3.53553,6.36396 -10.96016,16.26346 -19.44544,12.37437 -8.48528,-3.88909 -7.60139,-21.03643 -1.59098,-22.09709 6.0104,-1.06066 13.43503,-1.76777 12.02081,3.18198 -1.41421,4.94975 -7.42462,10.96016 -9.19239,7.42462 -1.76776,-3.53553 3.53554,-6.36396 3.53554,-6.36396 0,0 0.35355,-2.12132 -3.18198,-0.35355 -3.53554,1.76777 -6.18719,7.95495 -1.591,10.78338 4.5962,2.82843 13.43503,-0.70711 13.78859,-6.36396 0.35355,-5.65685 4.94974,-15.02602 -2.47488,-13.61181 -7.42462,1.41421 -22.80419,9.54595 -22.80419,15.55636 0,6.0104 -2.2981,9.19238 0.88388,10.96015 3.18198,1.76776 10.07627,5.12653 7.95495,14.31892 -2.12132,9.19238 -9.01561,42.4264 -15.37957,43.1335 -6.36396,0.70711 -30.05203,-7.42461 -29.69848,-21.56675 0.35355,-14.14213 9.89949,-27.93072 18.03122,-26.51651 8.13173,1.41422 19.79899,9.54594 17.67767,17.67767 -2.12132,8.13173 -5.3033,16.61701 -13.78858,12.72792 -8.48528,-3.88908 -7.42463,-13.08147 -5.3033,-14.49568 2.12132,-1.41422 11.84403,-0.35356 11.84403,-0.35356 0,0 -6.18718,-6.01041 -10.07627,-5.3033 -3.88909,0.70711 -11.31371,10.6066 -8.13173,15.9099 3.18198,5.3033 6.01041,12.72793 10.96016,12.02082 4.94975,-0.70711 18.38477,-2.12133 19.79899,-9.8995 4.97465,-11.33861 3.53553,-23.68808 -8.83884,-29.34493 -12.37437,-5.65685 -24.74873,-4.24264 -28.28427,-1.41421 -3.53553,2.82843 -14.49569,27.57716 -10.6066,36.76955 3.88908,9.19239 11.07108,28.38477 11.07108,28.38477 L 350.37141,558.981 Z"
         inkscape:path-effect="#path-effect2793"
         inkscape:connector-curvature="0"
         id="path2791"
         d="m 408.24264,501.64204 c -13.78074,13.59145 -25.16581,29.60518 -33.47605,47.08592 -0.66795,1.40504 -1.31621,2.81943 -1.94454,4.24263 2.83424,-1.18218 5.51522,-2.7312 7.95495,-4.59619 5.15257,-3.93877 9.12373,-9.18352 13.09242,-14.31309 3.96869,-5.12956 8.08429,-10.29021 13.42409,-13.97118 5.6942,-3.92527 12.51195,-5.97689 18.20799,-9.89949 7.0353,-4.84489 11.89868,-12.2058 18.22057,-17.95055 3.16094,-2.87237 6.74936,-5.36859 10.80242,-6.71575 4.05305,-1.34716 8.617,-1.46449 12.51954,0.27111 3.79704,1.68869 6.74361,5.06436 8.19124,8.95969 1.44763,3.89533 1.44662,8.26092 0.29404,12.25351 -1.18959,4.12079 -3.65012,7.94028 -7.18724,10.36615 -1.76855,1.21294 -3.78906,2.06767 -5.90209,2.43384 -2.11304,0.36618 -4.31698,0.23844 -6.35611,-0.42562 -2.26746,-0.73841 -4.31588,-2.14359 -5.80738,-4.00426 -1.49149,-1.86067 -2.41832,-4.1711 -2.60865,-6.54816 -0.19033,-2.37706 0.35923,-4.81065 1.56776,-6.8664 1.20853,-2.05575 3.07258,-3.72241 5.25729,-4.67827 2.06755,-0.90459 4.42962,-1.16661 6.62059,-0.62561 2.19098,0.541 4.18906,1.90334 5.40022,3.80759 0.87774,1.38004 1.33523,3.03942 1.19834,4.6692 -0.13689,1.62978 -0.88538,3.21651 -2.11607,4.29371 -1.23068,1.07719 -2.94192,1.61115 -4.55476,1.33971 -0.80642,-0.13572 -1.58078,-0.46599 -2.22993,-0.96332 -0.64915,-0.49733 -1.17106,-1.16167 -1.48997,-1.91468 -0.545,-1.28686 -0.46315,-2.82269 0.21554,-4.04433 0.67869,-1.22165 1.93946,-2.10252 3.32,-2.31963 -0.9897,-0.44355 -2.11905,-0.56903 -3.18198,-0.35355 -1.13033,0.22914 -2.17613,0.84165 -2.94462,1.70163 -0.76849,0.85998 -1.25842,1.96113 -1.4036,3.10528 -0.14518,1.14414 0.0521,2.32669 0.54162,3.37094 0.48957,1.04426 1.26781,1.94839 2.2156,2.60553 1.19875,0.83114 2.65914,1.26193 4.11772,1.27968 1.45859,0.0178 2.91201,-0.36961 4.20062,-1.05318 2.57723,-1.36712 4.42665,-3.86612 5.47025,-6.59046 0.87641,-2.28789 1.23552,-4.79588 0.85624,-7.21635 -0.37927,-2.42047 -1.52178,-4.74355 -3.33112,-6.39546 -2.10662,-1.92333 -5.03922,-2.84786 -7.88747,-2.69137 -2.84825,0.15649 -5.59552,1.34839 -7.80079,3.15776 -2.20527,1.80938 -3.88384,4.21335 -5.0316,6.8248 -1.14775,2.61146 -1.77936,5.42897 -2.08433,8.26517 -0.39472,3.67092 -0.24165,7.44381 0.88388,10.96015 1.66875,5.21347 5.33084,9.51486 7.95495,14.31892 4.24616,7.7736 5.69922,17.2357 3.02421,25.67981 -1.33751,4.22206 -3.68265,8.13743 -6.86607,11.21648 -3.18342,3.07904 -7.20819,5.3045 -11.53771,6.23721 -6.67927,1.43892 -13.91436,-0.31824 -19.38109,-4.41678 -5.46673,-4.09854 -9.14354,-10.41905 -10.31739,-17.14997 -1.039,-5.9577 -0.11666,-12.34728 3.11371,-17.45985 1.61519,-2.55628 3.78747,-4.7692 6.35784,-6.36187 2.57037,-1.59267 5.53904,-2.5562 8.55967,-2.69479 4.68239,-0.21483 9.42201,1.62539 12.7355,4.94076 3.31349,3.31538 5.15079,8.05424 4.94217,12.73691 -0.15821,3.55115 -1.50891,7.10411 -4.03503,9.60499 -1.26307,1.25044 -2.80481,2.22583 -4.49229,2.7838 -1.68748,0.55797 -3.5195,0.69298 -5.26126,0.33913 -1.52695,-0.31022 -2.97823,-0.99581 -4.17701,-1.99117 -1.19877,-0.99536 -2.14147,-2.29973 -2.69488,-3.75628 -0.55341,-1.45656 -0.71444,-3.06235 -0.44489,-4.597 0.26955,-1.53465 0.97086,-2.99332 2.01348,-4.15123 1.47699,-1.6403 3.64015,-2.64231 5.84645,-2.70817 2.2063,-0.0659 4.42537,0.80533 5.99758,2.35461 -0.83032,-1.87095 -2.30571,-3.44833 -4.11707,-4.40168 -1.81136,-0.95335 -3.94689,-1.27645 -5.9592,-0.90162 -1.64243,0.30593 -3.19096,1.06618 -4.47325,2.13713 -1.28228,1.07094 -2.29989,2.44728 -2.99851,3.96488 -1.39725,3.0352 -1.49076,6.57145 -0.65997,9.80789 0.70318,2.73932 2.05418,5.31638 3.94663,7.41804 1.89245,2.10166 4.32662,3.72025 7.01353,4.60278 3.88852,1.27721 8.27621,0.9557 11.93702,-0.87471 3.6608,-1.8304 6.55063,-5.14764 7.86197,-9.02479 1.74906,-5.16128 1.84659,-10.86839 0.27489,-16.08641 -1.5717,-5.21803 -4.80505,-9.92186 -9.11373,-13.25852 -3.9886,-3.08879 -8.89889,-5.00232 -13.93501,-5.29732 -5.03612,-0.295 -10.17482,1.05052 -14.34926,3.88311 -5.59244,3.79479 -9.21432,10.0567 -10.741,16.6404 -1.52668,6.5837 -1.11203,13.48669 0.1344,20.12915 1.8839,10.03963 5.65993,19.72089 11.07108,28.38477 L 350.37141,558.981 Z"
         style="opacity:1;vector-effect:none;fill:#000000;fill-opacity:1;stroke:none;stroke-width:10;stroke-linecap:butt;stroke-linejoin:round;stroke-miterlimit:4;stroke-dasharray:none;stroke-dashoffset:0;stroke-opacity:1;marker:none;marker-start:none;marker-mid:none;marker-end:none;paint-order:normal" />
      <path
         inkscape:connector-curvature="0"
         id="path2795"
         d="M 320.14259,595.04345 480.30227,433.82311 478.5345,420.74163 Z"
         style="display:inline;opacity:1;vector-effect:none;fill:#000000;fill-opacity:1;stroke:none;stroke-width:10;stroke-linecap:butt;stroke-linejoin:round;stroke-miterlimit:4;stroke-dasharray:none;stroke-dashoffset:0;stroke-opacity:1;marker:none;marker-start:none;marker-mid:none;marker-end:none;paint-order:normal;filter:url(#filter2743)" />
      <circle
         style="opacity:1;vector-effect:none;fill:none;fill-opacity:1;stroke:#000000;stroke-width:10;stroke-linecap:butt;stroke-linejoin:round;stroke-miterlimit:4;stroke-dasharray:none;stroke-dashoffset:0;stroke-opacity:1;marker:none;marker-start:none;marker-mid:none;marker-end:none;paint-order:normal"
         id="circle2828"
         cx="323.85492"
         cy="482.96701"
         r="164.75587" />
      <path
         sodipodi:nodetypes="csscsssc"
         inkscape:original-d="m 415.77878,351.44516 c 0,0 14.14214,27.57716 4.94975,47.37615 -9.19239,19.79899 -20.50609,27.57717 -16.97056,48.79037 3.53554,21.21321 4.94975,49.49748 4.94975,49.49748 0,0 1.41422,-21.92031 14.84925,-36.06245 13.43502,-14.14213 23.33452,-29.69848 24.04162,-41.01219 0.70711,-11.31371 -6.36396,-33.23402 -12.02081,-43.84062 -5.65686,-10.6066 -19.799,-24.74874 -19.799,-24.74874 z"
         inkscape:path-effect="#path-effect2832"
         inkscape:connector-curvature="0"
         id="path2830"
         d="m 415.77878,351.44516 c 6.66723,14.71457 8.43151,31.60124 4.94975,47.37615 -3.71595,16.83593 -13.0944,31.9906 -16.97056,48.79037 -3.79489,16.44751 -2.02692,34.12713 4.94975,49.49748 2.58222,-12.82271 7.65377,-25.13932 14.84925,-36.06245 4.39576,-6.673 9.55862,-12.80866 14.08106,-19.39646 4.52244,-6.58781 8.45132,-13.76883 9.96056,-21.61573 1.46699,-7.6272 0.56679,-15.58677 -1.7655,-22.99533 -2.33229,-7.40856 -6.0558,-14.3115 -10.25531,-20.84529 -5.72236,-8.90309 -12.36918,-17.21162 -19.799,-24.74874 z"
         style="opacity:1;vector-effect:none;fill:#57e389;fill-opacity:1;stroke:none;stroke-width:10;stroke-linecap:butt;stroke-linejoin:round;stroke-miterlimit:4;stroke-dasharray:none;stroke-dashoffset:0;stroke-opacity:1;marker:none;marker-start:none;marker-mid:none;marker-end:none;paint-order:normal" />
      <g
         id="g943">
        <path
           style="opacity:1;vector-effect:none;fill:#000000;fill-opacity:1;fill-rule:nonzero;stroke:none;stroke-width:10;stroke-linecap:butt;stroke-linejoin:round;stroke-miterlimit:4;stroke-dasharray:none;stroke-dashoffset:0;stroke-opacity:1;marker:none;marker-start:none;marker-mid:none;marker-end:none;paint-order:normal"
           d="m 421,360.31666 c 9.84034,13.04807 13.17467,30.76766 8.75,46.5 -3.62954,12.90519 -11.94894,23.93674 -17.25,36.25 -7.27736,16.90381 -8.6376,36.28802 -3.79228,54.0425 -3.40482,-18.16177 -1.27226,-37.32371 6.04228,-54.2925 5.11724,-11.87134 12.71442,-22.7472 16,-35.25 4.23542,-16.1173 0.51939,-34.12576 -9.75,-47.25 z"
           id="path917"
           inkscape:connector-curvature="0"
           inkscape:path-effect="#path-effect919"
           inkscape:original-d="m 421,360.31666 c 0,0 12.5,30.75 8.75,46.5 -3.75,15.75 -13.5,18.25 -17.25,36.25 -3.75,18 -3.79228,54.0425 -3.79228,54.0425 0,0 -0.45772,-37.0425 6.04228,-54.2925 6.5,-17.25 15.75,-16.75 16,-35.25 0.25,-18.5 -9.75,-47.25 -9.75,-47.25 z"
           sodipodi:nodetypes="csscssc" />
        <path
           style="opacity:1;vector-effect:none;fill:#000000;fill-opacity:1;fill-rule:nonzero;stroke:none;stroke-width:7.22890568;stroke-linecap:butt;stroke-linejoin:round;stroke-miterlimit:4;stroke-dasharray:none;stroke-dashoffset:0;stroke-opacity:1;marker:none;marker-start:none;marker-mid:none;marker-end:none;paint-order:normal"
           d="m 406.5,472.56666 c 4.28396,-3.19203 8.74878,-5.57022 13.37348,-7.22891 -4.45783,1.35399 -8.91565,3.02517 -13.37348,7.22891 z"
           id="path921"
           inkscape:connector-curvature="0"
           sodipodi:nodetypes="ccc" />
        <path
           sodipodi:nodetypes="ccc"
           inkscape:connector-curvature="0"
           id="path923"
           d="m 407.2955,462.93233 c 6.66231,-4.51902 13.60588,-7.88587 20.7981,-10.23411 -6.9327,1.91687 -13.86539,4.28279 -20.7981,10.23411 z"
           style="opacity:1;vector-effect:none;fill:#000000;fill-opacity:1;fill-rule:nonzero;stroke:none;stroke-width:10.72632408;stroke-linecap:butt;stroke-linejoin:round;stroke-miterlimit:4;stroke-dasharray:none;stroke-dashoffset:0;stroke-opacity:1;marker:none;marker-start:none;marker-mid:none;marker-end:none;paint-order:normal" />
        <path
           style="opacity:1;vector-effect:none;fill:#000000;fill-opacity:1;fill-rule:nonzero;stroke:none;stroke-width:10.72632408;stroke-linecap:butt;stroke-linejoin:round;stroke-miterlimit:4;stroke-dasharray:none;stroke-dashoffset:0;stroke-opacity:1;marker:none;marker-start:none;marker-mid:none;marker-end:none;paint-order:normal"
           d="m 410.74265,450.2928 c 6.66231,-4.51902 13.60588,-7.88587 20.7981,-10.23411 -6.9327,1.91687 -13.86539,4.28279 -20.7981,10.23411 z"
           id="path925"
           inkscape:connector-curvature="0"
           sodipodi:nodetypes="ccc" />
        <path
           sodipodi:nodetypes="ccc"
           inkscape:connector-curvature="0"
           id="path927"
           d="m 415.41467,439.3855 c 7.36942,-7.08228 21.13145,-12.80008 28.32367,-15.14832 -6.9327,1.91687 -21.0803,4.72213 -28.32367,15.14832 z"
           style="opacity:1;vector-effect:none;fill:#000000;fill-opacity:1;fill-rule:nonzero;stroke:none;stroke-width:10.72632408;stroke-linecap:butt;stroke-linejoin:round;stroke-miterlimit:4;stroke-dasharray:none;stroke-dashoffset:0;stroke-opacity:1;marker:none;marker-start:none;marker-mid:none;marker-end:none;paint-order:normal" />
        <path
           style="opacity:1;vector-effect:none;fill:#000000;fill-opacity:1;fill-rule:nonzero;stroke:none;stroke-width:7.7705822;stroke-linecap:butt;stroke-linejoin:round;stroke-miterlimit:4;stroke-dasharray:none;stroke-dashoffset:0;stroke-opacity:1;marker:none;marker-start:none;marker-mid:none;marker-end:none;paint-order:normal"
           d="m 424.17768,422.09692 c 5.10786,-5.36257 13.78013,-7.04185 18.76517,-8.81989 -4.80516,1.45142 -13.22485,2.43973 -18.76517,8.81989 z"
           id="path929"
           inkscape:connector-curvature="0"
           sodipodi:nodetypes="ccc" />
        <path
           sodipodi:nodetypes="ccc"
           inkscape:connector-curvature="0"
           id="path931"
           d="m 428.86226,411.04837 c 5.10786,-5.36257 8.47683,-6.86507 13.46187,-8.64311 -4.80516,1.45142 -8.98221,1.46745 -13.46187,8.64311 z"
           style="opacity:1;vector-effect:none;fill:#000000;fill-opacity:1;fill-rule:nonzero;stroke:none;stroke-width:7.7705822;stroke-linecap:butt;stroke-linejoin:round;stroke-miterlimit:4;stroke-dasharray:none;stroke-dashoffset:0;stroke-opacity:1;marker:none;marker-start:none;marker-mid:none;marker-end:none;paint-order:normal" />
        <path
           style="opacity:1;vector-effect:none;fill:#000000;fill-opacity:1;fill-rule:nonzero;stroke:none;stroke-width:7.7705822;stroke-linecap:butt;stroke-linejoin:round;stroke-miterlimit:4;stroke-dasharray:none;stroke-dashoffset:0;stroke-opacity:1;marker:none;marker-start:none;marker-mid:none;marker-end:none;paint-order:normal"
           d="m 431.51391,399.82305 c 2.36782,-3.32964 4.85291,-5.62763 9.83795,-7.40567 -4.80516,1.45142 -8.00994,2.88166 -9.83795,7.40567 z"
           id="path933"
           inkscape:connector-curvature="0"
           sodipodi:nodetypes="ccc" />
      </g>
    </g>
    <use
       x="0"
       y="0"
       xlink:href="#path19181"
       id="use19200"
       transform="matrix(0.30023141,0,0,0.30023141,901.42171,766.10414)"
       width="100%"
       height="100%" />
  </g>
</svg>
