<?xml version="1.0" encoding="UTF-8" standalone="no"?>
<!-- Created with Inkscape (http://www.inkscape.org/) -->

<svg
   xmlns:dc="http://purl.org/dc/elements/1.1/"
   xmlns:cc="http://creativecommons.org/ns#"
   xmlns:rdf="http://www.w3.org/1999/02/22-rdf-syntax-ns#"
   xmlns:svg="http://www.w3.org/2000/svg"
   xmlns="http://www.w3.org/2000/svg"
   xmlns:xlink="http://www.w3.org/1999/xlink"
   xmlns:sodipodi="http://sodipodi.sourceforge.net/DTD/sodipodi-0.dtd"
   xmlns:inkscape="http://www.inkscape.org/namespaces/inkscape"
   width="90.545494mm"
   height="108.63927mm"
   viewBox="0 0 90.545494 108.63927"
   version="1.1"
   id="svg4220"
   inkscape:version="0.92.4 (unknown)"
   sodipodi:docname="tuhi-logo.svg">
  <defs
     id="defs4214">
    <filter
       inkscape:collect="always"
       style="color-interpolation-filters:sRGB"
       id="filter2743">
      <feBlend
         inkscape:collect="always"
         mode="multiply"
         in2="BackgroundImage"
         id="feBlend2745" />
    </filter>
    <radialGradient
       inkscape:collect="always"
       xlink:href="#linearGradient2824"
       id="radialGradient2826"
       cx="187.53024"
       cy="400.20236"
       fx="187.53024"
       fy="400.20236"
       r="125.53025"
       gradientTransform="matrix(2.1630662,0,0,2.2573179,-218.11009,-508.31733)"
       gradientUnits="userSpaceOnUse" />
    <linearGradient
       inkscape:collect="always"
       id="linearGradient2824">
      <stop
         style="stop-color:#99c1f1;stop-opacity:1"
         offset="0"
         id="stop2820" />
      <stop
         style="stop-color:#ffffff;stop-opacity:0;"
         offset="1"
         id="stop2822" />
    </linearGradient>
    <radialGradient
       inkscape:collect="always"
       xlink:href="#linearGradient19060"
       id="radialGradient19062"
       cx="312.94751"
       cy="468.45197"
       fx="312.94751"
       fy="468.45197"
       r="31.197359"
       gradientTransform="matrix(7.4428525,-0.06410799,0.03419264,3.9697205,-2030.4372,-1291.0653)"
       gradientUnits="userSpaceOnUse" />
    <linearGradient
       inkscape:collect="always"
       id="linearGradient19060">
      <stop
         style="stop-color:#f6f5f4;stop-opacity:1;"
         offset="0"
         id="stop19056" />
      <stop
         style="stop-color:#f6f5f4;stop-opacity:0;"
         offset="1"
         id="stop19058" />
    </linearGradient>
    <radialGradient
       inkscape:collect="always"
       xlink:href="#linearGradient19068"
       id="radialGradient19070"
       cx="361.52719"
       cy="468.23438"
       fx="361.52719"
       fy="468.23438"
       r="26.937635"
       gradientTransform="matrix(21.848521,-1.5084157e-8,0,10.64316,-7579.1667,-4418.1367)"
       gradientUnits="userSpaceOnUse" />
    <linearGradient
       inkscape:collect="always"
       id="linearGradient19068">
      <stop
         style="stop-color:#deddda;stop-opacity:1;"
         offset="0"
         id="stop19064" />
      <stop
         style="stop-color:#deddda;stop-opacity:0;"
         offset="1"
         id="stop19066" />
    </linearGradient>
    <inkscape:path-effect
       effect="spiro"
       id="path-effect2775"
       is_visible="true" />
    <inkscape:path-effect
       effect="spiro"
       id="path-effect2812"
       is_visible="true" />
    <inkscape:path-effect
       effect="spiro"
       id="path-effect2787"
       is_visible="true" />
    <inkscape:path-effect
       effect="spiro"
       id="path-effect2793"
       is_visible="true" />
    <inkscape:path-effect
       effect="spiro"
       id="path-effect2832"
       is_visible="true" />
    <inkscape:path-effect
       effect="spiro"
       id="path-effect919"
       is_visible="true" />
  </defs>
  <sodipodi:namedview
     id="base"
     pagecolor="#ffffff"
     bordercolor="#666666"
     borderopacity="1.0"
     inkscape:pageopacity="0.0"
     inkscape:pageshadow="2"
     inkscape:zoom="1.4"
     inkscape:cx="198.2222"
     inkscape:cy="289.89222"
     inkscape:document-units="mm"
     inkscape:current-layer="layer1"
     showgrid="false"
     fit-margin-top="0"
     fit-margin-left="0"
     fit-margin-right="0"
     fit-margin-bottom="0"
     inkscape:window-width="1920"
     inkscape:window-height="1016"
     inkscape:window-x="0"
     inkscape:window-y="27"
     inkscape:window-maximized="1" />
  <metadata
     id="metadata4217">
    <rdf:RDF>
      <cc:Work
         rdf:about="">
        <dc:format>image/svg+xml</dc:format>
        <dc:type
           rdf:resource="http://purl.org/dc/dcmitype/StillImage" />
        <dc:title></dc:title>
      </cc:Work>
    </rdf:RDF>
  </metadata>
  <g
     inkscape:label="Layer 1"
     inkscape:groupmode="layer"
     id="layer1"
     transform="translate(-77.191538,-69.56727)">
    <g
       id="g916"
       transform="matrix(0.26458333,0,0,0.26458333,36.4195,-13.303175)">
      <text
         transform="matrix(11.258872,0,0,11.258872,-3120.4945,-7002.1351)"
         id="text2749"
         y="685.86847"
         x="299.15558"
         style="font-style:normal;font-variant:normal;font-weight:800;font-stretch:normal;font-size:4.00001669px;line-height:1.25;font-family:Montserrat;-inkscape-font-specification:'Montserrat, Ultra-Bold';font-variant-ligatures:normal;font-variant-caps:normal;font-variant-numeric:normal;font-feature-settings:normal;text-align:start;letter-spacing:0px;word-spacing:0px;writing-mode:lr-tb;text-anchor:start;fill:#000000;fill-opacity:1;stroke:none;filter:url(#filter2743)"
         xml:space="preserve"><tspan
           style="font-style:normal;font-variant:normal;font-weight:800;font-stretch:normal;font-size:4.00001669px;font-family:Montserrat;-inkscape-font-specification:'Montserrat, Ultra-Bold';font-variant-ligatures:normal;font-variant-caps:normal;font-variant-numeric:normal;font-feature-settings:normal;text-align:start;letter-spacing:1.43622279px;writing-mode:lr-tb;text-anchor:start"
           y="685.86847"
           x="299.15558"
           id="tspan2747"
           sodipodi:role="line">TUHI</tspan></text>
      <circle
         r="164.75587"
         cy="482.96701"
         cx="323.85492"
         id="path2769"
         style="opacity:1;vector-effect:none;fill:#ffffff;fill-opacity:1;stroke:none;stroke-width:10;stroke-linecap:butt;stroke-linejoin:round;stroke-miterlimit:4;stroke-dasharray:none;stroke-dashoffset:0;stroke-opacity:1;marker:none;marker-start:none;marker-mid:none;marker-end:none;paint-order:normal" />
      <path
         sodipodi:nodetypes="cssccscssc"
         inkscape:connector-curvature="0"
         id="path2818"
         d="m 192,387.06666 c 0,0 24,18 29,33 5,15 -16,36 -11,60 5,24 102,117 102,117 l 37,-39 c 0,0 26,-11 45,12 19,23 17,51 17,51 0,0 -33.66769,28 -88,28 -86.00581,0 -163,-75.02518 -163,-148 0,-84.14868 32,-114 32,-114 z"
         style="opacity:1;vector-effect:none;fill:url(#radialGradient2826);fill-opacity:1;stroke:none;stroke-width:10;stroke-linecap:butt;stroke-linejoin:round;stroke-miterlimit:4;stroke-dasharray:none;stroke-dashoffset:0;stroke-opacity:1;marker:none;marker-start:none;marker-mid:none;marker-end:none;paint-order:normal" />
      <path
         sodipodi:nodetypes="ccscsc"
         inkscape:connector-curvature="0"
         id="path2814"
         d="m 478,432.06666 -121,123 c 0,0 29.40381,8.59099 40.40381,23.59099 11,15 19.59619,38.40901 19.59619,38.40901 0,0 45.01692,-46.29522 60,-69 17.74207,-26.88564 19.94072,-117.72188 1,-116 z"
         style="opacity:1;vector-effect:none;fill:#2ec27e;fill-opacity:1;stroke:none;stroke-width:10;stroke-linecap:butt;stroke-linejoin:round;stroke-miterlimit:4;stroke-dasharray:none;stroke-dashoffset:0;stroke-opacity:1;marker:none;marker-start:none;marker-mid:none;marker-end:none;paint-order:normal" />
      <path
         inkscape:connector-curvature="0"
         id="path2816"
         d="m 254,335.06666 v 202 c 0,0 -38,-23 -41,-55 -3,-32 19,-33 10,-56 -9,-23 -30,-43 -30,-43 0,0 19,-28 36,-37 17,-9 25,-11 25,-11 z"
         style="opacity:1;vector-effect:none;fill:#ffbe6f;fill-opacity:1;stroke:none;stroke-width:10;stroke-linecap:butt;stroke-linejoin:round;stroke-miterlimit:4;stroke-dasharray:none;stroke-dashoffset:0;stroke-opacity:1;marker:none;marker-start:none;marker-mid:none;marker-end:none;paint-order:normal" />
      <path
         style="opacity:1;vector-effect:none;fill:url(#radialGradient19062);fill-opacity:1;fill-rule:nonzero;stroke:none;stroke-width:0.01129822px;stroke-linecap:butt;stroke-linejoin:miter;stroke-miterlimit:4;stroke-dasharray:none;stroke-dashoffset:0;stroke-opacity:1;marker:none;marker-start:none;marker-mid:none;marker-end:none;paint-order:normal"
         d="M 281.60528,565.34496 V 323.06666 L 339.73001,317.64617 344,565.06666 Z"
         id="path19034"
         inkscape:connector-curvature="0"
         sodipodi:nodetypes="ccccc" />
      <path
         style="opacity:1;vector-effect:none;fill:#26a269;fill-opacity:1;fill-rule:nonzero;stroke:none;stroke-width:10;stroke-linecap:butt;stroke-linejoin:round;stroke-miterlimit:4;stroke-dasharray:none;stroke-dashoffset:0;stroke-opacity:1;marker:none;marker-start:none;marker-mid:none;marker-end:none;paint-order:normal"
         d="M 383.70593,329.28221 392.5,433.56666 386.93816,519.77377 478,432.06666 c 0,0 -6.16678,-39.80619 -36.05826,-62.23672 -29.89149,-22.43054 -58.23581,-40.54773 -58.23581,-40.54773 z"
         id="path1029"
         inkscape:connector-curvature="0" />
      <path
         sodipodi:nodetypes="ccccc"
         inkscape:connector-curvature="0"
         id="path19036"
         d="m 393.60528,515.34496 -12,-189.2783 -41.87527,-8.42049 L 344,565.06666 Z"
         style="opacity:1;vector-effect:none;fill:url(#radialGradient19070);fill-opacity:1;fill-rule:nonzero;stroke:none;stroke-width:0.01129822px;stroke-linecap:butt;stroke-linejoin:miter;stroke-miterlimit:4;stroke-dasharray:none;stroke-dashoffset:0;stroke-opacity:1;marker:none;marker-start:none;marker-mid:none;marker-end:none;paint-order:normal" />
      <path
         sodipodi:nodetypes="cccccc"
         inkscape:connector-curvature="0"
         id="path2771"
         d="M 251.73001,331.64617 V 535.4697 l 60.98796,60.98796 60.98796,-60.98796 13.23223,-15.69593 -3.23223,-190.49156"
         style="opacity:1;vector-effect:none;fill:none;fill-opacity:1;stroke:#000000;stroke-width:10;stroke-linecap:butt;stroke-linejoin:round;stroke-miterlimit:4;stroke-dasharray:none;stroke-dashoffset:0;stroke-opacity:1;marker:none;marker-start:none;marker-mid:none;marker-end:none;paint-order:normal" />
      <path
         inkscape:original-d="m 229.8097,598.93253 c 0,0 40.04773,-49.37615 78.2315,-46.54772 38.18376,2.82842 121.53658,60.79036 121.53658,60.79036 0,0 -6.02082,2.55115 -30.76956,16.16296 0,0 12.79899,-12.69239 8.55635,-24.71321 -2.12132,-6.01041 14.94029,-2.66966 -6.65343,-10.13782 -27.73025,-9.59047 -59.17897,-34.5557 -85.91258,-33.03123 -45.25484,2.12132 -84.98886,37.47666 -84.98886,37.47666 z"
         inkscape:path-effect="#path-effect2775"
         sodipodi:nodetypes="csccsscc"
         inkscape:connector-curvature="0"
         id="path2773"
         d="m 229.8097,598.93253 c 18.63146,-24.94869 47.41641,-42.07573 78.2315,-46.54772 23.85631,-3.46211 48.74281,0.54992 70.3025,11.33368 21.55969,10.78376 39.69613,28.29102 51.23408,49.45668 l -30.76956,16.16296 c 4.04327,-2.45035 7.19045,-6.34513 8.73726,-10.81275 1.54681,-4.46763 1.48164,-9.4746 -0.18091,-13.90046 -1.42959,-3.80568 -3.95561,-7.09666 -6.65343,-10.13782 -10.53158,-11.87188 -24.22068,-20.81019 -39.11132,-26.29877 -14.89064,-5.48859 -30.95363,-7.57407 -46.80126,-6.73246 -31.60479,1.67841 -62.4348,15.2732 -84.98886,37.47666 z"
         style="opacity:1;vector-effect:none;fill:#000000;fill-opacity:1;stroke:none;stroke-width:2;stroke-linecap:butt;stroke-linejoin:round;stroke-miterlimit:4;stroke-dasharray:none;stroke-dashoffset:0;stroke-opacity:1;marker:none;marker-start:none;marker-mid:none;marker-end:none;paint-order:normal" />
      <path
         sodipodi:nodetypes="cssccscscc"
         inkscape:connector-curvature="0"
         id="path2779"
         d="m 184,393.31666 c 0,0 21,14.25 23,34.25 2,20 -7.5,33.5 -3,55 4.5,21.5 48.73001,60.40304 48.73001,60.40304 l -1,-7.5 c 0,0 -29.73001,-28.40304 -34.23001,-48.40304 -4.5,-20 16.5,-34.5 16.5,-34.5 0,0 -0.5,-18.5 -9.5,-35 -9,-16.5 -30.5,-38.75 -30.5,-38.75 z"
         style="opacity:1;vector-effect:none;fill:#000000;fill-opacity:1;stroke:none;stroke-width:2;stroke-linecap:butt;stroke-linejoin:round;stroke-miterlimit:4;stroke-dasharray:none;stroke-dashoffset:0;stroke-opacity:1;marker:none;marker-start:none;marker-mid:none;marker-end:none;paint-order:normal" />
      <path
         inkscape:connector-curvature="0"
         id="path2781"
         d="m 281.60528,565.34496 31.11269,31.1127 37.65344,-37.47666 c 0,0 -22.27386,-4.06586 -36.94633,-1.76777 -14.67246,2.2981 -31.8198,8.13173 -31.8198,8.13173 z"
         style="opacity:1;vector-effect:none;fill:#000000;fill-opacity:1;stroke:none;stroke-width:2;stroke-linecap:butt;stroke-linejoin:round;stroke-miterlimit:4;stroke-dasharray:none;stroke-dashoffset:0;stroke-opacity:1;marker:none;marker-start:none;marker-mid:none;marker-end:none;paint-order:normal" />
      <path
         inkscape:original-d="m 372.5,325.06666 8.46447,157.14645 c 1.29174,23.98178 -4.75854,42.35355 -4.75854,42.35355 l -6.20593,13.5 34,-29 c 0,0 -6.29289,1.29289 -6.79289,-2.70711 -0.25,-2 -1.52145,4.44912 -2.39645,-8.00983 -0.875,-12.45894 -2.06066,-43.11885 0.68934,-52.86885 5.5,-19.5 20,-40.41421 16,-57.41421 -4,-17 -19.5,-31.5 -19.5,-31.5 0,0 11.5,20.5 11.5,35 0,14.5 -11,42 -11,42 l -8.79407,-104.28445 z"
         inkscape:path-effect="#path-effect2812"
         sodipodi:nodetypes="cscccsssscsccc"
         inkscape:connector-curvature="0"
         id="path2783"
         d="m 372.5,325.06666 8.46447,157.14645 c 0.77051,14.30478 0.29769,28.95001 -4.75854,42.35355 l -6.20593,13.5 34,-29 c -1.26273,0.17615 -2.57058,0.018 -3.75495,-0.45396 -1.18438,-0.472 -2.24249,-1.25677 -3.03794,-2.25315 -0.88219,-1.10503 -1.43104,-2.44567 -1.77167,-3.81802 -0.34063,-1.37234 -0.48278,-2.78497 -0.62478,-4.19181 -1.7796,-17.6309 -3.66068,-35.69058 0.68934,-52.86885 2.45856,-9.70888 6.83445,-18.80399 10.41984,-28.15555 3.5854,-9.35157 6.42323,-19.27888 5.58016,-29.25866 -1.07881,-12.77031 -8.55057,-24.84007 -19.5,-31.5 6.80897,10.39036 10.81941,22.59603 11.5,35 0.80581,14.68601 -3.09878,29.59441 -11,42 l -8.79407,-104.28445 z"
         style="opacity:1;vector-effect:none;fill:#000000;fill-opacity:1;stroke:none;stroke-width:2;stroke-linecap:butt;stroke-linejoin:round;stroke-miterlimit:4;stroke-dasharray:none;stroke-dashoffset:0;stroke-opacity:1;marker:none;marker-start:none;marker-mid:none;marker-end:none;paint-order:normal" />
      <path
         transform="translate(-4.9497475,-11.667262)"
         inkscape:original-d="m 417,359.06666 c 0,0 5.5,27.5 3,44.5 -2.5,17 -17,40 -16.5,55 0.5,15 10,55.5 10,55.5 l 6,-7 c 0,0 -1.5,-4 1.5,-14 3,-10 29.5,-31.5 31.5,-45 2,-13.5 6.5,-37 -2.5,-52.5 -9,-15.5 -33,-36.5 -33,-36.5 z"
         inkscape:path-effect="#path-effect2787"
         inkscape:connector-curvature="0"
         id="path2785"
         d="m 417,359.06666 c 4.78201,14.25026 5.82605,29.73683 3,44.5 -3.60326,18.82328 -13.27514,36.10821 -16.5,55 -3.22759,18.90777 0.37603,38.90783 10,55.5 l 6,-7 c -0.42409,-4.70468 0.0888,-9.49195 1.5,-14 2.75215,-8.79191 8.73429,-16.16487 14.84677,-23.05759 6.11249,-6.89272 12.58118,-13.67861 16.65323,-21.94241 4.01011,-8.1381 5.48528,-17.41259 4.83711,-26.46187 -0.64817,-9.04929 -3.36526,-17.88129 -7.33711,-26.03813 -7.27671,-14.94391 -18.86275,-27.75877 -33,-36.5 z"
         style="opacity:1;vector-effect:none;fill:#000000;fill-opacity:1;stroke:none;stroke-width:2;stroke-linecap:butt;stroke-linejoin:round;stroke-miterlimit:4;stroke-dasharray:none;stroke-dashoffset:0;stroke-opacity:1;marker:none;marker-start:none;marker-mid:none;marker-end:none;paint-order:normal" />
      <path
         sodipodi:nodetypes="cscscsssssccccscsscscscssccssscscsccc"
         inkscape:original-d="m 408.24264,501.64204 c 0,0 -18.4698,26.5434 -33.47605,47.08592 -1.52463,2.08711 -1.94454,4.24263 -1.94454,4.24263 0,0 3.0052,1.06067 7.95495,-4.59619 4.94975,-5.65685 15.55635,-23.68808 26.51651,-28.28427 10.96015,-4.5962 12.55114,-0.70711 18.20799,-9.89949 5.65686,-9.19239 33.05725,-27.57717 41.54253,-24.39519 8.48528,3.18198 12.02081,14.84924 8.48528,21.2132 -3.53553,6.36396 -10.96016,16.26346 -19.44544,12.37437 -8.48528,-3.88909 -7.60139,-21.03643 -1.59098,-22.09709 6.0104,-1.06066 13.43503,-1.76777 12.02081,3.18198 -1.41421,4.94975 -7.42462,10.96016 -9.19239,7.42462 -1.76776,-3.53553 3.53554,-6.36396 3.53554,-6.36396 0,0 0.35355,-2.12132 -3.18198,-0.35355 -3.53554,1.76777 -6.18719,7.95495 -1.591,10.78338 4.5962,2.82843 13.43503,-0.70711 13.78859,-6.36396 0.35355,-5.65685 4.94974,-15.02602 -2.47488,-13.61181 -7.42462,1.41421 -22.80419,9.54595 -22.80419,15.55636 0,6.0104 -2.2981,9.19238 0.88388,10.96015 3.18198,1.76776 10.07627,5.12653 7.95495,14.31892 -2.12132,9.19238 -9.01561,42.4264 -15.37957,43.1335 -6.36396,0.70711 -30.05203,-7.42461 -29.69848,-21.56675 0.35355,-14.14213 9.89949,-27.93072 18.03122,-26.51651 8.13173,1.41422 19.79899,9.54594 17.67767,17.67767 -2.12132,8.13173 -5.3033,16.61701 -13.78858,12.72792 -8.48528,-3.88908 -7.42463,-13.08147 -5.3033,-14.49568 2.12132,-1.41422 11.84403,-0.35356 11.84403,-0.35356 0,0 -6.18718,-6.01041 -10.07627,-5.3033 -3.88909,0.70711 -11.31371,10.6066 -8.13173,15.9099 3.18198,5.3033 6.01041,12.72793 10.96016,12.02082 4.94975,-0.70711 18.38477,-2.12133 19.79899,-9.8995 4.97465,-11.33861 3.53553,-23.68808 -8.83884,-29.34493 -12.37437,-5.65685 -24.74873,-4.24264 -28.28427,-1.41421 -3.53553,2.82843 -14.49569,27.57716 -10.6066,36.76955 3.88908,9.19239 11.07108,28.38477 11.07108,28.38477 L 350.37141,558.981 Z"
         inkscape:path-effect="#path-effect2793"
         inkscape:connector-curvature="0"
         id="path2791"
         d="m 408.24264,501.64204 c -13.78074,13.59145 -25.16581,29.60518 -33.47605,47.08592 -0.66795,1.40504 -1.31621,2.81943 -1.94454,4.24263 2.83424,-1.18218 5.51522,-2.7312 7.95495,-4.59619 5.15257,-3.93877 9.12373,-9.18352 13.09242,-14.31309 3.96869,-5.12956 8.08429,-10.29021 13.42409,-13.97118 5.6942,-3.92527 12.51195,-5.97689 18.20799,-9.89949 7.0353,-4.84489 11.89868,-12.2058 18.22057,-17.95055 3.16094,-2.87237 6.74936,-5.36859 10.80242,-6.71575 4.05305,-1.34716 8.617,-1.46449 12.51954,0.27111 3.79704,1.68869 6.74361,5.06436 8.19124,8.95969 1.44763,3.89533 1.44662,8.26092 0.29404,12.25351 -1.18959,4.12079 -3.65012,7.94028 -7.18724,10.36615 -1.76855,1.21294 -3.78906,2.06767 -5.90209,2.43384 -2.11304,0.36618 -4.31698,0.23844 -6.35611,-0.42562 -2.26746,-0.73841 -4.31588,-2.14359 -5.80738,-4.00426 -1.49149,-1.86067 -2.41832,-4.1711 -2.60865,-6.54816 -0.19033,-2.37706 0.35923,-4.81065 1.56776,-6.8664 1.20853,-2.05575 3.07258,-3.72241 5.25729,-4.67827 2.06755,-0.90459 4.42962,-1.16661 6.62059,-0.62561 2.19098,0.541 4.18906,1.90334 5.40022,3.80759 0.87774,1.38004 1.33523,3.03942 1.19834,4.6692 -0.13689,1.62978 -0.88538,3.21651 -2.11607,4.29371 -1.23068,1.07719 -2.94192,1.61115 -4.55476,1.33971 -0.80642,-0.13572 -1.58078,-0.46599 -2.22993,-0.96332 -0.64915,-0.49733 -1.17106,-1.16167 -1.48997,-1.91468 -0.545,-1.28686 -0.46315,-2.82269 0.21554,-4.04433 0.67869,-1.22165 1.93946,-2.10252 3.32,-2.31963 -0.9897,-0.44355 -2.11905,-0.56903 -3.18198,-0.35355 -1.13033,0.22914 -2.17613,0.84165 -2.94462,1.70163 -0.76849,0.85998 -1.25842,1.96113 -1.4036,3.10528 -0.14518,1.14414 0.0521,2.32669 0.54162,3.37094 0.48957,1.04426 1.26781,1.94839 2.2156,2.60553 1.19875,0.83114 2.65914,1.26193 4.11772,1.27968 1.45859,0.0178 2.91201,-0.36961 4.20062,-1.05318 2.57723,-1.36712 4.42665,-3.86612 5.47025,-6.59046 0.87641,-2.28789 1.23552,-4.79588 0.85624,-7.21635 -0.37927,-2.42047 -1.52178,-4.74355 -3.33112,-6.39546 -2.10662,-1.92333 -5.03922,-2.84786 -7.88747,-2.69137 -2.84825,0.15649 -5.59552,1.34839 -7.80079,3.15776 -2.20527,1.80938 -3.88384,4.21335 -5.0316,6.8248 -1.14775,2.61146 -1.77936,5.42897 -2.08433,8.26517 -0.39472,3.67092 -0.24165,7.44381 0.88388,10.96015 1.66875,5.21347 5.33084,9.51486 7.95495,14.31892 4.24616,7.7736 5.69922,17.2357 3.02421,25.67981 -1.33751,4.22206 -3.68265,8.13743 -6.86607,11.21648 -3.18342,3.07904 -7.20819,5.3045 -11.53771,6.23721 -6.67927,1.43892 -13.91436,-0.31824 -19.38109,-4.41678 -5.46673,-4.09854 -9.14354,-10.41905 -10.31739,-17.14997 -1.039,-5.9577 -0.11666,-12.34728 3.11371,-17.45985 1.61519,-2.55628 3.78747,-4.7692 6.35784,-6.36187 2.57037,-1.59267 5.53904,-2.5562 8.55967,-2.69479 4.68239,-0.21483 9.42201,1.62539 12.7355,4.94076 3.31349,3.31538 5.15079,8.05424 4.94217,12.73691 -0.15821,3.55115 -1.50891,7.10411 -4.03503,9.60499 -1.26307,1.25044 -2.80481,2.22583 -4.49229,2.7838 -1.68748,0.55797 -3.5195,0.69298 -5.26126,0.33913 -1.52695,-0.31022 -2.97823,-0.99581 -4.17701,-1.99117 -1.19877,-0.99536 -2.14147,-2.29973 -2.69488,-3.75628 -0.55341,-1.45656 -0.71444,-3.06235 -0.44489,-4.597 0.26955,-1.53465 0.97086,-2.99332 2.01348,-4.15123 1.47699,-1.6403 3.64015,-2.64231 5.84645,-2.70817 2.2063,-0.0659 4.42537,0.80533 5.99758,2.35461 -0.83032,-1.87095 -2.30571,-3.44833 -4.11707,-4.40168 -1.81136,-0.95335 -3.94689,-1.27645 -5.9592,-0.90162 -1.64243,0.30593 -3.19096,1.06618 -4.47325,2.13713 -1.28228,1.07094 -2.29989,2.44728 -2.99851,3.96488 -1.39725,3.0352 -1.49076,6.57145 -0.65997,9.80789 0.70318,2.73932 2.05418,5.31638 3.94663,7.41804 1.89245,2.10166 4.32662,3.72025 7.01353,4.60278 3.88852,1.27721 8.27621,0.9557 11.93702,-0.87471 3.6608,-1.8304 6.55063,-5.14764 7.86197,-9.02479 1.74906,-5.16128 1.84659,-10.86839 0.27489,-16.08641 -1.5717,-5.21803 -4.80505,-9.92186 -9.11373,-13.25852 -3.9886,-3.08879 -8.89889,-5.00232 -13.93501,-5.29732 -5.03612,-0.295 -10.17482,1.05052 -14.34926,3.88311 -5.59244,3.79479 -9.21432,10.0567 -10.741,16.6404 -1.52668,6.5837 -1.11203,13.48669 0.1344,20.12915 1.8839,10.03963 5.65993,19.72089 11.07108,28.38477 L 350.37141,558.981 Z"
         style="opacity:1;vector-effect:none;fill:#000000;fill-opacity:1;stroke:none;stroke-width:10;stroke-linecap:butt;stroke-linejoin:round;stroke-miterlimit:4;stroke-dasharray:none;stroke-dashoffset:0;stroke-opacity:1;marker:none;marker-start:none;marker-mid:none;marker-end:none;paint-order:normal" />
      <path
         inkscape:connector-curvature="0"
         id="path2795"
         d="M 320.14259,595.04345 480.30227,433.82311 478.5345,420.74163 Z"
         style="display:inline;opacity:1;vector-effect:none;fill:#000000;fill-opacity:1;stroke:none;stroke-width:10;stroke-linecap:butt;stroke-linejoin:round;stroke-miterlimit:4;stroke-dasharray:none;stroke-dashoffset:0;stroke-opacity:1;marker:none;marker-start:none;marker-mid:none;marker-end:none;paint-order:normal;filter:url(#filter2743)" />
      <circle
         style="opacity:1;vector-effect:none;fill:none;fill-opacity:1;stroke:#000000;stroke-width:10;stroke-linecap:butt;stroke-linejoin:round;stroke-miterlimit:4;stroke-dasharray:none;stroke-dashoffset:0;stroke-opacity:1;marker:none;marker-start:none;marker-mid:none;marker-end:none;paint-order:normal"
         id="circle2828"
         cx="323.85492"
         cy="482.96701"
         r="164.75587" />
      <path
         sodipodi:nodetypes="csscsssc"
         inkscape:original-d="m 415.77878,351.44516 c 0,0 14.14214,27.57716 4.94975,47.37615 -9.19239,19.79899 -20.50609,27.57717 -16.97056,48.79037 3.53554,21.21321 4.94975,49.49748 4.94975,49.49748 0,0 1.41422,-21.92031 14.84925,-36.06245 13.43502,-14.14213 23.33452,-29.69848 24.04162,-41.01219 0.70711,-11.31371 -6.36396,-33.23402 -12.02081,-43.84062 -5.65686,-10.6066 -19.799,-24.74874 -19.799,-24.74874 z"
         inkscape:path-effect="#path-effect2832"
         inkscape:connector-curvature="0"
         id="path2830"
         d="m 415.77878,351.44516 c 6.66723,14.71457 8.43151,31.60124 4.94975,47.37615 -3.71595,16.83593 -13.0944,31.9906 -16.97056,48.79037 -3.79489,16.44751 -2.02692,34.12713 4.94975,49.49748 2.58222,-12.82271 7.65377,-25.13932 14.84925,-36.06245 4.39576,-6.673 9.55862,-12.80866 14.08106,-19.39646 4.52244,-6.58781 8.45132,-13.76883 9.96056,-21.61573 1.46699,-7.6272 0.56679,-15.58677 -1.7655,-22.99533 -2.33229,-7.40856 -6.0558,-14.3115 -10.25531,-20.84529 -5.72236,-8.90309 -12.36918,-17.21162 -19.799,-24.74874 z"
         style="opacity:1;vector-effect:none;fill:#57e389;fill-opacity:1;stroke:none;stroke-width:10;stroke-linecap:butt;stroke-linejoin:round;stroke-miterlimit:4;stroke-dasharray:none;stroke-dashoffset:0;stroke-opacity:1;marker:none;marker-start:none;marker-mid:none;marker-end:none;paint-order:normal" />
      <g
         id="g943">
        <path
           style="opacity:1;vector-effect:none;fill:#000000;fill-opacity:1;fill-rule:nonzero;stroke:none;stroke-width:10;stroke-linecap:butt;stroke-linejoin:round;stroke-miterlimit:4;stroke-dasharray:none;stroke-dashoffset:0;stroke-opacity:1;marker:none;marker-start:none;marker-mid:none;marker-end:none;paint-order:normal"
           d="m 421,360.31666 c 9.84034,13.04807 13.17467,30.76766 8.75,46.5 -3.62954,12.90519 -11.94894,23.93674 -17.25,36.25 -7.27736,16.90381 -8.6376,36.28802 -3.79228,54.0425 -3.40482,-18.16177 -1.27226,-37.32371 6.04228,-54.2925 5.11724,-11.87134 12.71442,-22.7472 16,-35.25 4.23542,-16.1173 0.51939,-34.12576 -9.75,-47.25 z"
           id="path917"
           inkscape:connector-curvature="0"
           inkscape:path-effect="#path-effect919"
           inkscape:original-d="m 421,360.31666 c 0,0 12.5,30.75 8.75,46.5 -3.75,15.75 -13.5,18.25 -17.25,36.25 -3.75,18 -3.79228,54.0425 -3.79228,54.0425 0,0 -0.45772,-37.0425 6.04228,-54.2925 6.5,-17.25 15.75,-16.75 16,-35.25 0.25,-18.5 -9.75,-47.25 -9.75,-47.25 z"
           sodipodi:nodetypes="csscssc" />
        <path
           style="opacity:1;vector-effect:none;fill:#000000;fill-opacity:1;fill-rule:nonzero;stroke:none;stroke-width:7.22890568;stroke-linecap:butt;stroke-linejoin:round;stroke-miterlimit:4;stroke-dasharray:none;stroke-dashoffset:0;stroke-opacity:1;marker:none;marker-start:none;marker-mid:none;marker-end:none;paint-order:normal"
           d="m 406.5,472.56666 c 4.28396,-3.19203 8.74878,-5.57022 13.37348,-7.22891 -4.45783,1.35399 -8.91565,3.02517 -13.37348,7.22891 z"
           id="path921"
           inkscape:connector-curvature="0"
           sodipodi:nodetypes="ccc" />
        <path
           sodipodi:nodetypes="ccc"
           inkscape:connector-curvature="0"
           id="path923"
           d="m 407.2955,462.93233 c 6.66231,-4.51902 13.60588,-7.88587 20.7981,-10.23411 -6.9327,1.91687 -13.86539,4.28279 -20.7981,10.23411 z"
           style="opacity:1;vector-effect:none;fill:#000000;fill-opacity:1;fill-rule:nonzero;stroke:none;stroke-width:10.72632408;stroke-linecap:butt;stroke-linejoin:round;stroke-miterlimit:4;stroke-dasharray:none;stroke-dashoffset:0;stroke-opacity:1;marker:none;marker-start:none;marker-mid:none;marker-end:none;paint-order:normal" />
        <path
           style="opacity:1;vector-effect:none;fill:#000000;fill-opacity:1;fill-rule:nonzero;stroke:none;stroke-width:10.72632408;stroke-linecap:butt;stroke-linejoin:round;stroke-miterlimit:4;stroke-dasharray:none;stroke-dashoffset:0;stroke-opacity:1;marker:none;marker-start:none;marker-mid:none;marker-end:none;paint-order:normal"
           d="m 410.74265,450.2928 c 6.66231,-4.51902 13.60588,-7.88587 20.7981,-10.23411 -6.9327,1.91687 -13.86539,4.28279 -20.7981,10.23411 z"
           id="path925"
           inkscape:connector-curvature="0"
           sodipodi:nodetypes="ccc" />
        <path
           sodipodi:nodetypes="ccc"
           inkscape:connector-curvature="0"
           id="path927"
           d="m 415.41467,439.3855 c 7.36942,-7.08228 21.13145,-12.80008 28.32367,-15.14832 -6.9327,1.91687 -21.0803,4.72213 -28.32367,15.14832 z"
           style="opacity:1;vector-effect:none;fill:#000000;fill-opacity:1;fill-rule:nonzero;stroke:none;stroke-width:10.72632408;stroke-linecap:butt;stroke-linejoin:round;stroke-miterlimit:4;stroke-dasharray:none;stroke-dashoffset:0;stroke-opacity:1;marker:none;marker-start:none;marker-mid:none;marker-end:none;paint-order:normal" />
        <path
           style="opacity:1;vector-effect:none;fill:#000000;fill-opacity:1;fill-rule:nonzero;stroke:none;stroke-width:7.7705822;stroke-linecap:butt;stroke-linejoin:round;stroke-miterlimit:4;stroke-dasharray:none;stroke-dashoffset:0;stroke-opacity:1;marker:none;marker-start:none;marker-mid:none;marker-end:none;paint-order:normal"
           d="m 424.17768,422.09692 c 5.10786,-5.36257 13.78013,-7.04185 18.76517,-8.81989 -4.80516,1.45142 -13.22485,2.43973 -18.76517,8.81989 z"
           id="path929"
           inkscape:connector-curvature="0"
           sodipodi:nodetypes="ccc" />
        <path
           sodipodi:nodetypes="ccc"
           inkscape:connector-curvature="0"
           id="path931"
           d="m 428.86226,411.04837 c 5.10786,-5.36257 8.47683,-6.86507 13.46187,-8.64311 -4.80516,1.45142 -8.98221,1.46745 -13.46187,8.64311 z"
           style="opacity:1;vector-effect:none;fill:#000000;fill-opacity:1;fill-rule:nonzero;stroke:none;stroke-width:7.7705822;stroke-linecap:butt;stroke-linejoin:round;stroke-miterlimit:4;stroke-dasharray:none;stroke-dashoffset:0;stroke-opacity:1;marker:none;marker-start:none;marker-mid:none;marker-end:none;paint-order:normal" />
        <path
           style="opacity:1;vector-effect:none;fill:#000000;fill-opacity:1;fill-rule:nonzero;stroke:none;stroke-width:7.7705822;stroke-linecap:butt;stroke-linejoin:round;stroke-miterlimit:4;stroke-dasharray:none;stroke-dashoffset:0;stroke-opacity:1;marker:none;marker-start:none;marker-mid:none;marker-end:none;paint-order:normal"
           d="m 431.51391,399.82305 c 2.36782,-3.32964 4.85291,-5.62763 9.83795,-7.40567 -4.80516,1.45142 -8.00994,2.88166 -9.83795,7.40567 z"
           id="path933"
           inkscape:connector-curvature="0"
           sodipodi:nodetypes="ccc" />
      </g>
    </g>
  </g>
</svg>
